<svg width="300" height="250" viewBox="0 0 300 250" fill="none" xmlns="http://www.w3.org/2000/svg">
<path d="M266.352 177.911H157.926C156.994 177.909 156.101 177.509 155.442 176.798C154.783 176.088 154.412 175.125 154.41 174.12V3.79122C154.413 2.7874 154.785 1.82576 155.444 1.11656C156.103 0.407355 156.995 0.00827699 157.926 0.00657272H266.352C267.283 0.00827699 268.176 0.407355 268.834 1.11656C269.493 1.82576 269.865 2.7874 269.868 3.79122V174.12C269.867 175.125 269.496 176.088 268.837 176.798C268.178 177.509 267.284 177.909 266.352 177.911ZM157.926 0.16831C157.483 0.164899 157.043 0.256041 156.632 0.436502C156.221 0.616963 155.848 0.883183 155.533 1.21986C155.218 1.55653 154.967 1.95701 154.796 2.3983C154.625 2.83958 154.537 3.31296 154.536 3.79122V174.12C154.536 175.082 154.891 176.005 155.522 176.686C156.153 177.367 157.009 177.749 157.902 177.749H266.352C267.245 177.749 268.101 177.367 268.732 176.686C269.364 176.005 269.718 175.082 269.718 174.12V3.79122C269.718 2.82865 269.364 1.9055 268.732 1.22486C268.101 0.544221 267.245 0.161839 266.352 0.161839L157.926 0.16831Z" fill="#E0E0E0"/>
<path d="M141.294 177.911H32.8441C31.9121 177.909 31.0187 177.509 30.3597 176.798C29.7007 176.088 29.3297 175.124 29.3281 174.119V3.79111C29.3297 2.78617 29.7007 1.82288 30.3597 1.11228C31.0187 0.401681 31.9121 0.00171054 32.8441 0H141.294C142.226 0.00171054 143.12 0.401681 143.779 1.11228C144.438 1.82288 144.809 2.78617 144.81 3.79111V174.119C144.809 175.124 144.438 176.088 143.779 176.798C143.12 177.509 142.226 177.909 141.294 177.911ZM32.8441 0.168208C31.9524 0.168206 31.0972 0.549698 30.4661 1.22894C29.835 1.90818 29.4797 2.82966 29.4781 3.79111V174.119C29.4781 175.082 29.8328 176.005 30.464 176.686C31.0953 177.366 31.9514 177.749 32.8441 177.749H141.294C142.187 177.749 143.043 177.366 143.674 176.686C144.305 176.005 144.66 175.082 144.66 174.119V3.79111C144.66 2.82854 144.305 1.9054 143.674 1.22476C143.043 0.544119 142.187 0.161737 141.294 0.161737L32.8441 0.168208Z" fill="#E0E0E0"/>
<path d="M300 217.42H0V217.581H300V217.42Z" fill="#E0E0E0"/>
<path d="M133.008 127.526V17.3511L91.2838 17.3511V127.526H133.008Z" fill="#E0E0E0"/>
<path d="M130.716 19.816H93.5703V125.049H130.716V19.816Z" fill="#F0F0F0"/>
<path d="M130.716 19.816V25.1663L93.5703 65.2123V54.4989L125.742 19.816H130.716Z" fill="#FAFAFA"/>
<path d="M130.716 52.8298V68.5118L93.5703 108.558V92.8823L130.716 52.8298Z" fill="#FAFAFA"/>
<path d="M114.162 17.3447H111.396V127.52H114.162V17.3447Z" fill="#E0E0E0"/>
<path d="M205.434 127.52V17.3447L163.71 17.3447V127.52H205.434Z" fill="#E0E0E0"/>
<path d="M203.148 19.816H166.002V125.049H203.148V19.816Z" fill="#F0F0F0"/>
<path d="M203.148 19.816V25.1663L166.002 65.2123V54.4989L198.174 19.816H203.148Z" fill="#FAFAFA"/>
<path d="M203.148 52.8298V68.5118L166.002 108.558V92.8823L203.148 52.8298Z" fill="#FAFAFA"/>
<path d="M186.588 17.3447H183.822V127.52H186.588V17.3447Z" fill="#E0E0E0"/>
<path d="M60.7019 42.6727C67.4851 42.6727 72.9839 36.7436 72.9839 29.4296C72.9839 22.1157 67.4851 16.1866 60.7019 16.1866C53.9188 16.1866 48.4199 22.1157 48.4199 29.4296C48.4199 36.7436 53.9188 42.6727 60.7019 42.6727Z" fill="#E0E0E0"/>
<path d="M71.7277 32.187C73.14 25.6226 69.3495 19.0667 63.2615 17.544C57.1735 16.0212 51.0934 20.1083 49.6811 26.6726C48.2689 33.237 52.0593 39.7929 58.1473 41.3156C64.2353 42.8384 70.3155 38.7513 71.7277 32.187Z" fill="#FAFAFA"/>
<path d="M60.7385 18.3345H60.3125V20.877H60.7385V18.3345Z" fill="#E0E0E0"/>
<path d="M60.7385 37.9111H60.3125V40.4536H60.7385V37.9111Z" fill="#E0E0E0"/>
<path d="M52.6197 29.1644H50.2617V29.6237H52.6197V29.1644Z" fill="#E0E0E0"/>
<path d="M70.776 29.1644H68.418V29.6237H70.776V29.1644Z" fill="#E0E0E0"/>
<path d="M67.6244 21.4178L65.957 23.2156L66.2583 23.5404L67.9256 21.7426L67.6244 21.4178Z" fill="#E0E0E0"/>
<path d="M54.7908 35.2463L53.124 37.0447L53.4254 37.3694L55.0921 35.571L54.7908 35.2463Z" fill="#E0E0E0"/>
<path d="M53.4184 21.4135L53.1172 21.7384L54.7848 23.5359L55.086 23.211L53.4184 21.4135Z" fill="#E0E0E0"/>
<path d="M66.2544 35.2655L65.9531 35.5903L67.6202 37.3884L67.9215 37.0637L66.2544 35.2655Z" fill="#E0E0E0"/>
<path d="M60.4395 29.0923L60.3076 29.4535L64.3105 31.1528L64.4424 30.7916L60.4395 29.0923Z" fill="#E0E0E0"/>
<path d="M60.7016 29.5914H54.1016V29.1967H60.3416V23.6783H60.7016V29.5914Z" fill="#E0E0E0"/>
<path d="M214.932 32.2762L214.572 31.6616L235.566 17.3964L256.05 31.9786L255.678 32.5867L235.56 18.2633L214.932 32.2762Z" fill="#E6E6E6"/>
<path d="M256.499 31.694H214.211V60.2114H256.499V31.694Z" fill="#E0E0E0"/>
<path d="M255.324 58.9564V32.962H215.382V58.9564H255.324Z" fill="white"/>
<path d="M221.058 41.1071H218.508V43.8566H221.058V41.1071Z" fill="#F5F5F5"/>
<path d="M224.993 41.1071H222.443V43.8566H224.993V41.1071Z" fill="#F5F5F5"/>
<path d="M228.924 41.1071H226.374V43.8566H228.924V41.1071Z" fill="#F5F5F5"/>
<path d="M232.861 41.1071H230.311V43.8566H232.861V41.1071Z" fill="#F5F5F5"/>
<path d="M236.796 41.1071H234.246V43.8566H236.796V41.1071Z" fill="#F5F5F5"/>
<path d="M240.732 41.1071H238.182V43.8566H240.732V41.1071Z" fill="#F5F5F5"/>
<path d="M244.662 41.1071H242.112V43.8566H244.662V41.1071Z" fill="#F5F5F5"/>
<path d="M248.599 41.1071H246.049V43.8566H248.599V41.1071Z" fill="#F5F5F5"/>
<path d="M252.534 41.1071H249.984V43.8566H252.534V41.1071Z" fill="#F5F5F5"/>
<path d="M221.058 44.8982H218.508V47.6477H221.058V44.8982Z" fill="#F5F5F5"/>
<path d="M224.993 44.8982H222.443V47.6477H224.993V44.8982Z" fill="#F5F5F5"/>
<path d="M228.924 44.8982H226.374V47.6477H228.924V44.8982Z" fill="#F5F5F5"/>
<path d="M232.861 44.8982H230.311V47.6477H232.861V44.8982Z" fill="#F5F5F5"/>
<path d="M236.796 44.8982H234.246V47.6477H236.796V44.8982Z" fill="#F5F5F5"/>
<path d="M240.732 44.8982H238.182V47.6477H240.732V44.8982Z" fill="#F5F5F5"/>
<path d="M244.662 44.8982H242.112V47.6477H244.662V44.8982Z" fill="#F5F5F5"/>
<path d="M248.599 44.8982H246.049V47.6477H248.599V44.8982Z" fill="#F5F5F5"/>
<path d="M252.534 44.8982H249.984V47.6477H252.534V44.8982Z" fill="#F5F5F5"/>
<path d="M221.058 48.6828H218.508V51.4324H221.058V48.6828Z" fill="#F5F5F5"/>
<path d="M224.993 48.6828H222.443V51.4324H224.993V48.6828Z" fill="#F5F5F5"/>
<path d="M228.924 48.6828H226.374V51.4324H228.924V48.6828Z" fill="#F5F5F5"/>
<path d="M232.861 48.6828H230.311V51.4324H232.861V48.6828Z" fill="#F5F5F5"/>
<path d="M236.796 48.6828H234.246V51.4324H236.796V48.6828Z" fill="#F5F5F5"/>
<path d="M240.732 48.6828H238.182V51.4324H240.732V48.6828Z" fill="#F5F5F5"/>
<path d="M244.662 48.6828H242.112V51.4324H244.662V48.6828Z" fill="#F5F5F5"/>
<path d="M248.599 48.6828H246.049V51.4324H248.599V48.6828Z" fill="#F5F5F5"/>
<path d="M252.534 48.6828H249.984V51.4324H252.534V48.6828Z" fill="#F5F5F5"/>
<path d="M221.058 52.7586H218.508V55.5081H221.058V52.7586Z" fill="#F5F5F5"/>
<path d="M224.993 52.7586H222.443V55.5081H224.993V52.7586Z" fill="#F5F5F5"/>
<path d="M228.924 52.7586H226.374V55.5081H228.924V52.7586Z" fill="#F5F5F5"/>
<path d="M232.861 52.7586H230.311V55.5081H232.861V52.7586Z" fill="#F5F5F5"/>
<path d="M246.876 35.5045H224.172V37.8852H246.876V35.5045Z" fill="#E0E0E0"/>
<path d="M236.916 17.6552C236.916 17.929 236.84 18.1967 236.699 18.4244C236.558 18.652 236.358 18.8295 236.123 18.9343C235.888 19.0391 235.63 19.0665 235.381 19.0131C235.132 18.9596 234.903 18.8278 234.724 18.6342C234.544 18.4405 234.422 18.1939 234.372 17.9253C234.323 17.6567 234.348 17.3784 234.445 17.1254C234.543 16.8724 234.707 16.6562 234.918 16.5041C235.129 16.3519 235.378 16.2707 235.632 16.2707C235.972 16.2707 236.299 16.4166 236.54 16.6762C236.78 16.9359 236.916 17.288 236.916 17.6552Z" fill="#E0E0E0"/>
<path d="M278.075 246.034C278.075 248.221 221.963 250 152.753 250C83.5428 250 27.4248 248.221 27.4248 246.034C27.4248 243.848 83.5248 242.062 152.753 242.062C221.981 242.062 278.075 243.841 278.075 246.034Z" fill="#F5F5F5"/>
<path d="M43.7877 104.715L45.5337 104.172L44.4237 99.9923L42.4017 100.639C41.8259 99.9327 41.1017 99.3848 40.2897 99.0413V96.8416H36.2577V99.0413C35.6247 99.3048 35.0428 99.6931 34.5417 100.186L32.7417 99.2548L30.9717 103.136L32.7417 104.068C32.7417 104.23 32.7417 104.385 32.7417 104.547C32.7427 105.562 32.9843 106.559 33.4437 107.445L32.1237 109.244L35.2737 111.961L36.5637 110.214C37.1161 110.407 37.6931 110.505 38.2737 110.505C38.6979 110.507 39.1207 110.454 39.5337 110.35L40.6977 112.116L43.9857 109.599L42.8517 107.872C43.4408 106.94 43.7659 105.843 43.7877 104.715ZM34.6437 104.56C34.6437 103.792 34.8548 103.042 35.2504 102.403C35.646 101.765 36.2082 101.267 36.866 100.974C37.5238 100.68 38.2477 100.603 38.946 100.753C39.6443 100.902 40.2858 101.272 40.7893 101.815C41.2927 102.358 41.6356 103.049 41.7745 103.802C41.9134 104.555 41.8421 105.336 41.5696 106.045C41.2972 106.754 40.8357 107.361 40.2437 107.787C39.6517 108.214 38.9557 108.441 38.2437 108.441C37.2949 108.431 36.3873 108.022 35.7147 107.3C35.0421 106.579 34.6577 105.602 34.6437 104.579V104.56Z" fill="#407BFF"/>
<path opacity="0.6" d="M43.7877 104.715L45.5337 104.172L44.4237 99.9923L42.4017 100.639C41.8259 99.9327 41.1017 99.3848 40.2897 99.0413V96.8416H36.2577V99.0413C35.6247 99.3048 35.0428 99.6931 34.5417 100.186L32.7417 99.2548L30.9717 103.136L32.7417 104.068C32.7417 104.23 32.7417 104.385 32.7417 104.547C32.7427 105.562 32.9843 106.559 33.4437 107.445L32.1237 109.244L35.2737 111.961L36.5637 110.214C37.1161 110.407 37.6931 110.505 38.2737 110.505C38.6979 110.507 39.1207 110.454 39.5337 110.35L40.6977 112.116L43.9857 109.599L42.8517 107.872C43.4408 106.94 43.7659 105.843 43.7877 104.715ZM34.6437 104.56C34.6437 103.792 34.8548 103.042 35.2504 102.403C35.646 101.765 36.2082 101.267 36.866 100.974C37.5238 100.68 38.2477 100.603 38.946 100.753C39.6443 100.902 40.2858 101.272 40.7893 101.815C41.2927 102.358 41.6356 103.049 41.7745 103.802C41.9134 104.555 41.8421 105.336 41.5696 106.045C41.2972 106.754 40.8357 107.361 40.2437 107.787C39.6517 108.214 38.9557 108.441 38.2437 108.441C37.2949 108.431 36.3873 108.022 35.7147 107.3C35.0421 106.579 34.6577 105.602 34.6437 104.579V104.56Z" fill="white"/>
<path d="M275.238 36.4296L276.984 35.8862L275.874 31.7069L273.858 32.3539C273.278 31.651 272.552 31.1058 271.74 30.7624V28.5627H267.726V30.7624C267.092 31.0279 266.511 31.4184 266.01 31.9139L264.222 30.9629L262.422 34.8446L264.222 35.7762C264.222 35.938 264.222 36.0932 264.222 36.255C264.223 37.2698 264.465 38.2675 264.924 39.1533L263.598 40.9453L266.748 43.6625L268.038 41.9157C268.59 42.1082 269.167 42.2065 269.748 42.2069C270.174 42.2082 270.599 42.1561 271.014 42.0516L272.172 43.8178L275.46 41.2947L274.326 39.5867C274.906 38.6515 275.223 37.5549 275.238 36.4296ZM266.1 36.2744C266.1 35.5066 266.311 34.7562 266.707 34.1178C267.102 33.4795 267.664 32.982 268.322 32.6882C268.98 32.3944 269.704 32.3175 270.402 32.4673C271.101 32.617 271.742 32.9867 272.245 33.5296C272.749 34.0725 273.092 34.7641 273.231 35.5171C273.37 36.2701 273.298 37.0505 273.026 37.7598C272.753 38.4691 272.292 39.0753 271.7 39.5019C271.108 39.9284 270.412 40.1561 269.7 40.1561C268.745 40.1561 267.829 39.7471 267.154 39.0191C266.479 38.2912 266.1 37.3039 266.1 36.2744Z" fill="#407BFF"/>
<path opacity="0.6" d="M275.238 36.4296L276.984 35.8862L275.874 31.7069L273.858 32.3539C273.278 31.651 272.552 31.1058 271.74 30.7624V28.5627H267.726V30.7624C267.092 31.0279 266.511 31.4184 266.01 31.9139L264.222 30.9629L262.422 34.8446L264.222 35.7762C264.222 35.938 264.222 36.0932 264.222 36.255C264.223 37.2698 264.465 38.2675 264.924 39.1533L263.598 40.9453L266.748 43.6625L268.038 41.9157C268.59 42.1082 269.167 42.2065 269.748 42.2069C270.174 42.2082 270.599 42.1561 271.014 42.0516L272.172 43.8178L275.46 41.2947L274.326 39.5867C274.906 38.6515 275.223 37.5549 275.238 36.4296ZM266.1 36.2744C266.1 35.5066 266.311 34.7562 266.707 34.1178C267.102 33.4795 267.664 32.982 268.322 32.6882C268.98 32.3944 269.704 32.3175 270.402 32.4673C271.101 32.617 271.742 32.9867 272.245 33.5296C272.749 34.0725 273.092 34.7641 273.231 35.5171C273.37 36.2701 273.298 37.0505 273.026 37.7598C272.753 38.4691 272.292 39.0753 271.7 39.5019C271.108 39.9284 270.412 40.1561 269.7 40.1561C268.745 40.1561 267.829 39.7471 267.154 39.0191C266.479 38.2912 266.1 37.3039 266.1 36.2744Z" fill="white"/>
<path d="M58.1289 82.1106C57.081 82.1112 56.0384 81.95 55.0329 81.6319C55.0045 81.6238 54.9779 81.6095 54.9547 81.5899C54.9316 81.5703 54.9124 81.5458 54.8984 81.5179C54.8843 81.4901 54.8757 81.4594 54.8731 81.4278C54.8704 81.3962 54.8737 81.3644 54.8829 81.3343C54.8905 81.3035 54.9037 81.2747 54.9218 81.2495C54.9399 81.2244 54.9624 81.2033 54.9881 81.1877C55.0138 81.172 55.0422 81.162 55.0715 81.1583C55.1008 81.1546 55.1305 81.1572 55.1589 81.1661C56.1215 81.471 57.1196 81.6257 58.1229 81.6254C58.1851 81.6252 58.2451 81.6505 58.2908 81.6961C58.3364 81.7417 58.3643 81.8043 58.3689 81.8712C58.3714 81.9012 58.3681 81.9313 58.3593 81.9599C58.3506 81.9884 58.3365 82.0147 58.3179 82.0371C58.2994 82.0596 58.2768 82.0777 58.2515 82.0903C58.2262 82.1029 58.1987 82.1098 58.1709 82.1106V81.8712L58.1289 82.1106ZM61.1949 81.6319C61.1463 81.6314 61.0992 81.6141 61.0603 81.5827C61.0215 81.5513 60.9929 81.5073 60.9789 81.4572C60.9697 81.4271 60.9664 81.3952 60.9691 81.3636C60.9717 81.332 60.9803 81.3014 60.9944 81.2735C61.0084 81.2457 61.0276 81.2212 61.0507 81.2016C61.0739 81.182 61.1004 81.1677 61.1289 81.1596C62.0901 80.8482 63.0053 80.3908 63.8469 79.801C63.8972 79.7665 63.958 79.7547 64.0163 79.768C64.0747 79.7813 64.1258 79.8187 64.1589 79.8722C64.1908 79.9264 64.2018 79.992 64.1895 80.0549C64.1772 80.1178 64.1425 80.1729 64.0929 80.2086C63.2163 80.8223 62.2626 81.2973 61.2609 81.6189L61.1949 81.6319ZM52.3269 80.2733C52.2842 80.2734 52.2424 80.2599 52.2069 80.2345C51.3267 79.6224 50.5309 78.8798 49.8429 78.0284C49.8015 77.9825 49.7783 77.921 49.7783 77.8569C49.7783 77.7929 49.8015 77.7314 49.8429 77.6855C49.8636 77.6626 49.8883 77.6444 49.9156 77.632C49.9429 77.6196 49.9722 77.6132 50.0019 77.6132C50.0315 77.6132 50.0609 77.6196 50.0882 77.632C50.1155 77.6444 50.1402 77.6626 50.1609 77.6855C50.8207 78.4999 51.5819 79.2118 52.4229 79.801C52.4484 79.8169 52.4706 79.8383 52.4881 79.8638C52.5056 79.8892 52.5182 79.9183 52.5249 79.9492C52.5317 79.9801 52.5325 80.0122 52.5273 80.0434C52.5221 80.0747 52.5111 80.1045 52.4949 80.1309C52.4798 80.1677 52.4566 80.1998 52.4273 80.2246C52.398 80.2494 52.3635 80.2662 52.3269 80.2733ZM66.2889 78.0737C66.234 78.0743 66.1808 78.0537 66.1389 78.0154C66.0975 77.9695 66.0743 77.908 66.0743 77.844C66.0743 77.7799 66.0975 77.7184 66.1389 77.6725C66.7954 76.8553 67.339 75.9401 67.7529 74.9554C67.781 74.9023 67.8264 74.8625 67.8803 74.8436C67.9341 74.8246 67.9926 74.828 68.0443 74.8531C68.096 74.8781 68.1371 74.923 68.1598 74.979C68.1825 75.035 68.185 75.098 68.1669 75.1559C67.7324 76.1819 67.1647 77.1361 66.4809 77.9895C66.4573 78.0224 66.4258 78.0476 66.3898 78.0624C66.3538 78.0773 66.3148 78.0812 66.2769 78.0737H66.2889ZM48.3549 75.3371C48.3117 75.3373 48.2695 75.3239 48.2332 75.2987C48.197 75.2734 48.1684 75.2373 48.1509 75.1947C47.7129 74.1683 47.4158 73.0787 47.2689 71.96C47.2647 71.9285 47.2663 71.8965 47.2737 71.8657C47.2811 71.8349 47.2941 71.806 47.312 71.7807C47.3299 71.7554 47.3523 71.7342 47.3778 71.7183C47.4034 71.7025 47.4316 71.6922 47.4609 71.6883C47.4897 71.6828 47.5193 71.6837 47.5478 71.6909C47.5764 71.6981 47.6032 71.7115 47.6268 71.7302C47.6504 71.749 47.6702 71.7727 47.685 71.8C47.6998 71.8273 47.7093 71.8575 47.7129 71.8888C47.855 72.9603 48.1399 74.0041 48.5589 74.9877C48.572 75.0165 48.5795 75.0478 48.5812 75.0799C48.5828 75.1119 48.5785 75.1439 48.5684 75.1741C48.5583 75.2043 48.5427 75.232 48.5225 75.2555C48.5024 75.279 48.478 75.298 48.4509 75.3112C48.4169 75.3278 48.3802 75.3366 48.3429 75.3371H48.3549ZM68.7909 72.1023C68.7313 72.0927 68.6776 72.0581 68.6416 72.0059C68.6057 71.9538 68.5903 71.8885 68.5989 71.8241C68.7434 70.7515 68.7434 69.662 68.5989 68.5894C68.5947 68.5579 68.5963 68.5259 68.6037 68.4951C68.6111 68.4643 68.6241 68.4354 68.642 68.4101C68.6599 68.3848 68.6823 68.3636 68.7078 68.3477C68.7334 68.3319 68.7616 68.3217 68.7909 68.3177C68.8489 68.3084 68.9081 68.3243 68.9553 68.3619C69.0025 68.3995 69.034 68.4557 69.0429 68.5182C69.1945 69.6358 69.1945 70.7712 69.0429 71.8888C69.0424 71.9241 69.0349 71.9589 69.0209 71.9908C69.0069 72.0226 68.9867 72.0509 68.9616 72.0736C68.9366 72.0963 68.9073 72.1129 68.8758 72.1224C68.8442 72.1318 68.8112 72.1338 68.7789 72.1282L68.7909 72.1023ZM47.4849 68.8676C47.4265 68.858 47.3738 68.8242 47.338 68.7736C47.3021 68.7229 47.286 68.6592 47.2929 68.5959C47.4414 67.4776 47.7385 66.3882 48.1749 65.3611C48.1866 65.3322 48.2035 65.306 48.2247 65.2841C48.2458 65.2622 48.2708 65.245 48.2981 65.2336C48.3255 65.2222 48.3546 65.2167 48.3839 65.2175C48.4132 65.2183 48.4421 65.2253 48.4689 65.2382C48.5225 65.2663 48.5642 65.3154 48.5854 65.3756C48.6066 65.4357 48.6057 65.5023 48.5829 65.5617C48.163 66.5445 47.88 67.5887 47.7429 68.6606C47.7393 68.6943 47.7293 68.7268 47.7136 68.7561C47.6978 68.7854 47.6765 68.8109 47.6512 68.831C47.6258 68.851 47.5969 68.8652 47.5662 68.8726C47.5355 68.88 47.5038 68.8805 47.4729 68.8741L47.4849 68.8676ZM67.8849 65.6652C67.8421 65.6639 67.8004 65.6499 67.7644 65.6248C67.7284 65.5997 67.6995 65.5645 67.6809 65.5229C67.2619 64.5386 66.7121 63.6254 66.0489 62.8122C66.0075 62.7663 65.9843 62.7047 65.9843 62.6407C65.9843 62.5767 66.0075 62.5152 66.0489 62.4693C66.0696 62.4464 66.0943 62.4282 66.1216 62.4158C66.1489 62.4034 66.1782 62.397 66.2079 62.397C66.2375 62.397 66.2669 62.4034 66.2942 62.4158C66.3215 62.4282 66.3462 62.4464 66.3669 62.4693C67.0556 63.3167 67.6275 64.2667 68.0649 65.29C68.0897 65.3484 68.0922 65.415 68.072 65.4754C68.0519 65.5359 68.0105 65.5854 67.9569 65.6134C67.9489 65.634 67.9388 65.6535 67.9269 65.6717L67.8849 65.6652ZM49.9869 62.9351C49.9341 62.9342 49.8832 62.9137 49.8429 62.8769C49.8217 62.8546 49.8048 62.8279 49.7933 62.7984C49.7817 62.769 49.7758 62.7374 49.7758 62.7054C49.7758 62.6735 49.7817 62.6418 49.7933 62.6124C49.8048 62.5829 49.8217 62.5563 49.8429 62.534C50.5272 61.6792 51.3212 60.9342 52.2009 60.3214C52.2512 60.2869 52.312 60.2751 52.3703 60.2884C52.4287 60.3017 52.4798 60.3391 52.5129 60.3926C52.5292 60.4196 52.5404 60.4498 52.5456 60.4816C52.5508 60.5133 52.5501 60.5459 52.5433 60.5773C52.5366 60.6087 52.5241 60.6384 52.5065 60.6644C52.4889 60.6905 52.4666 60.7124 52.4409 60.729C51.599 61.3169 50.8394 62.0315 50.1849 62.851C50.1611 62.8817 50.1304 62.9056 50.0958 62.9203C50.0612 62.935 50.0238 62.9401 49.9869 62.9351ZM63.9189 60.7225C63.875 60.7241 63.8314 60.7129 63.7929 60.6902C62.9505 60.1025 62.0328 59.6513 61.0689 59.351C61.0119 59.3316 60.9643 59.2889 60.9362 59.232C60.9082 59.1751 60.902 59.1087 60.9189 59.0469C60.9264 59.0163 60.9397 58.9876 60.9578 58.9626C60.976 58.9377 60.9987 58.917 61.0245 58.9019C61.0504 58.8868 61.0788 58.8775 61.1081 58.8746C61.1374 58.8717 61.1669 58.8753 61.1949 58.8852C62.2001 59.1987 63.158 59.6672 64.0389 60.2761C64.0885 60.3118 64.1232 60.3669 64.1355 60.4298C64.1478 60.4927 64.1368 60.5583 64.1049 60.6125C64.0849 60.6461 64.0573 60.6738 64.0249 60.693C63.9924 60.7122 63.9559 60.7224 63.9189 60.7225ZM55.0749 59.3704C55.0196 59.373 54.9654 59.3532 54.923 59.315C54.8805 59.2768 54.8528 59.2228 54.8453 59.1637C54.8378 59.1046 54.851 59.0447 54.8824 58.9955C54.9138 58.9464 54.961 58.9117 55.0149 58.8981C56.0173 58.5743 57.0584 58.4108 58.1049 58.4129C58.1582 58.4223 58.2068 58.4519 58.2418 58.4964C58.2768 58.5408 58.296 58.5972 58.296 58.6555C58.296 58.7138 58.2768 58.7702 58.2418 58.8147C58.2068 58.8591 58.1582 58.8887 58.1049 58.8981C57.1011 58.8969 56.1026 59.0538 55.1409 59.3639L55.0749 59.3704Z" fill="#407BFF"/>
<path d="M58.123 79.9304C63.0704 79.9304 67.081 75.6059 67.081 70.2715C67.081 64.937 63.0704 60.6125 58.123 60.6125C53.1757 60.6125 49.165 64.937 49.165 70.2715C49.165 75.6059 53.1757 79.9304 58.123 79.9304Z" fill="#407BFF"/>
<path d="M56.5687 74.4637C56.488 74.4608 56.4087 74.4404 56.3355 74.4037C56.2623 74.3671 56.1968 74.3148 56.1427 74.2502L53.4427 71.0154C53.3469 70.8868 53.3003 70.7236 53.3124 70.5592C53.3245 70.3947 53.3944 70.2415 53.5078 70.1308C53.6212 70.0201 53.7696 69.9602 53.9226 69.9635C54.0755 69.9668 54.2215 70.033 54.3307 70.1485L56.6167 72.8786L62.3947 66.875C62.4505 66.8143 62.5169 66.7662 62.59 66.7334C62.6631 66.7005 62.7415 66.6836 62.8207 66.6836C62.8999 66.6836 62.9784 66.7005 63.0515 66.7334C63.1246 66.7662 63.1909 66.8143 63.2467 66.875C63.3585 66.9962 63.4212 67.1601 63.4212 67.3311C63.4212 67.502 63.3585 67.6659 63.2467 67.7872L56.9827 74.3084C56.8678 74.4146 56.7199 74.4701 56.5687 74.4637Z" fill="white"/>
<path d="M121.506 88.7935C121.506 88.7935 103.266 98.7112 97.7758 123.548C93.7738 141.662 94.9858 175.847 102.198 178.59C109.41 181.333 110.214 160.165 110.274 152.641C110.334 145.117 116.874 135.93 122.7 135.38C122.7 135.38 123.84 95.6577 121.506 88.7935Z" fill="#407BFF"/>
<path opacity="0.2" d="M124.236 93.7168C119.922 95.4895 116.376 98.8924 113.502 102.696C110.442 106.883 107.925 111.499 106.02 116.418C103.907 121.673 102.366 127.174 101.43 132.812C100.554 138.751 100.126 144.757 100.152 150.771C100.056 158.127 99.8875 165.787 102.552 172.722C102.654 173 103.08 172.877 102.972 172.599C100.668 166.557 100.53 159.958 100.572 153.521C100.62 147.446 100.704 141.345 101.502 135.322C102.93 124.622 106.548 113.798 112.434 104.987C115.488 100.419 119.406 96.2076 124.362 94.1697C124.626 94.0597 124.512 93.6069 124.248 93.7168H124.236Z" fill="black"/>
<path d="M183.996 88.7935C183.996 88.7935 202.236 98.7112 207.726 123.548C211.728 141.662 210.516 175.847 203.304 178.59C196.092 181.333 195.288 160.165 195.228 152.641C195.168 145.117 188.628 135.93 182.802 135.38C182.802 135.38 181.662 95.6577 183.996 88.7935Z" fill="#407BFF"/>
<path opacity="0.2" d="M181.152 94.1632C185.49 95.9488 189.036 99.4164 191.892 103.292C194.878 107.447 197.332 112.017 199.188 116.878C201.268 122.106 202.78 127.577 203.694 133.181C204.648 139.081 204.84 145.078 204.894 151.056C204.984 158.282 205.128 165.78 202.53 172.593C202.428 172.871 202.848 172.994 202.95 172.716C205.284 166.595 205.404 159.893 205.35 153.372C205.302 147.219 205.2 141.041 204.372 134.94C203.572 129.132 202.13 123.448 200.076 118.01C198.291 113.097 195.93 108.45 193.05 104.184C190.008 99.7399 186.126 95.7159 181.266 93.7168C181.002 93.6069 180.888 94.0597 181.152 94.1697V94.1632Z" fill="black"/>
<path d="M177.726 164.273H127.326C127.326 164.273 118.098 126.039 121.716 83.1654C122.692 71.8044 125.367 60.6885 129.636 50.2487C129.696 50.087 129.762 49.9253 129.828 49.77C130.884 47.1822 131.994 44.7432 133.134 42.4207C137.611 33.2828 143.194 24.8266 149.736 17.2738C150.11 16.8133 150.572 16.4443 151.089 16.1916C151.606 15.9388 152.168 15.808 152.736 15.808C153.304 15.808 153.865 15.9388 154.383 16.1916C154.9 16.4443 155.361 16.8133 155.736 17.2738C162.487 25.0685 168.216 33.8233 172.764 43.294C173.904 45.6683 175.014 48.172 176.064 50.7986L176.25 51.2644C180.276 61.4125 182.811 72.1754 183.762 83.1654C187.374 126.065 177.726 164.273 177.726 164.273Z" fill="#407BFF"/>
<g opacity="0.5">
<path d="M177.726 164.273H127.326C127.326 164.273 118.098 126.039 121.716 83.1654C122.692 71.8044 125.367 60.6885 129.636 50.2487C129.696 50.087 129.762 49.9253 129.828 49.77C130.884 47.1822 131.994 44.7432 133.134 42.4207C137.611 33.2828 143.194 24.8266 149.736 17.2738C150.11 16.8133 150.572 16.4443 151.089 16.1916C151.606 15.9388 152.168 15.808 152.736 15.808C153.304 15.808 153.865 15.9388 154.383 16.1916C154.9 16.4443 155.361 16.8133 155.736 17.2738C162.487 25.0685 168.216 33.8233 172.764 43.294C173.904 45.6683 175.014 48.172 176.064 50.7986L176.25 51.2644C180.276 61.4125 182.811 72.1754 183.762 83.1654C187.374 126.065 177.726 164.273 177.726 164.273Z" fill="white"/>
</g>
<path d="M172.151 158.826H134.357V159.447H172.151V158.826Z" fill="#407BFF"/>
<path d="M178.871 178.829H127.925C124.295 173.194 128.135 164.273 128.135 164.273H177.839C177.839 164.273 181.661 171.551 178.871 178.829Z" fill="#263238"/>
<path d="M166.002 183.94H140.526C138.726 181.119 140.634 176.662 140.634 176.662H165.486C165.486 176.662 167.394 180.298 166.002 183.94Z" fill="#263238"/>
<path d="M166.015 183.94H140.611C135.469 186.884 122.677 193.91 124.465 205.813H182.815C184.603 193.91 171.157 186.877 166.015 183.94Z" fill="#407BFF"/>
<path d="M184.571 203.297H122.273V208.479H184.571V203.297Z" fill="#263238"/>
<path d="M172.763 43.2937C168.167 46.839 161.135 50.8112 152.735 50.8112C145.451 50.7664 138.449 47.7634 133.127 42.4009C133.607 41.4219 134.091 40.4687 134.579 39.5414L134.813 39.108C138.973 31.218 143.98 23.883 149.729 17.2541C150.103 16.7936 150.565 16.4246 151.082 16.1719C151.6 15.9191 152.161 15.7883 152.729 15.7883C153.297 15.7883 153.858 15.9191 154.376 16.1719C154.893 16.4246 155.354 16.7936 155.729 17.2541C161.496 23.8978 166.515 31.2528 170.681 39.1662L170.915 39.6126C171.543 40.8073 172.159 42.0343 172.763 43.2937Z" fill="#407BFF"/>
<path opacity="0.2" d="M170.922 39.632C169.447 40.7735 167.883 41.7757 166.248 42.6274C160.486 45.6287 154.003 46.6322 147.69 45.4998C142.958 44.6204 138.475 42.5893 134.58 39.5608L134.814 39.1274C136.396 40.365 138.084 41.4373 139.854 42.3298C145.608 45.2538 152.067 46.1588 158.322 44.9176C162.783 44.0062 167.004 42.0518 170.688 39.1921L170.922 39.632Z" fill="black"/>
<path d="M176.891 90.0098C174.581 64.8565 172.775 54.79 172.565 53.6837C173.435 53.1726 174.251 52.655 174.965 52.1504C175.403 51.8593 175.823 51.5617 176.225 51.2641L176.039 50.7983C175.613 51.1088 175.175 51.4452 174.719 51.7299C169.919 54.997 162.209 58.8981 152.921 58.8981C145.601 58.9025 138.457 56.4815 132.455 51.9628C131.465 51.2253 130.583 50.4813 129.797 49.7697C129.731 49.9249 129.665 50.0867 129.605 50.2484C130.367 50.9342 131.225 51.6458 132.173 52.3639C132.773 52.8168 133.451 53.289 134.165 53.7548C133.907 55.1523 132.125 65.3029 129.857 89.9839C128.057 109.263 129.701 128.445 131.369 141.145C132.36 148.938 133.725 156.671 135.461 164.312C135.473 164.362 135.5 164.406 135.538 164.438C135.576 164.47 135.623 164.487 135.671 164.486H135.725C135.78 164.47 135.827 164.431 135.856 164.378C135.885 164.325 135.894 164.262 135.881 164.202C134.149 156.576 132.787 148.858 131.801 141.08C130.133 128.413 128.519 109.276 130.289 90.0421C132.485 66.1439 134.225 55.8898 134.561 53.9942C140.125 57.5539 146.476 59.4312 152.945 59.4286C159.666 59.3372 166.261 57.4571 172.145 53.9554C172.445 55.5986 174.203 65.7945 176.435 90.0874C178.205 109.321 176.591 128.458 174.923 141.125C173.937 148.904 172.575 156.621 170.843 164.247C170.83 164.307 170.839 164.37 170.868 164.423C170.897 164.476 170.944 164.515 170.999 164.532H171.053C171.101 164.532 171.148 164.515 171.186 164.483C171.224 164.452 171.251 164.407 171.263 164.357C172.999 156.716 174.365 148.984 175.355 141.19C177.047 128.471 178.667 109.289 176.891 90.0098Z" fill="#407BFF"/>
<path d="M152.946 116.709C149.643 116.711 146.414 115.656 143.667 113.678C140.92 111.7 138.779 108.888 137.514 105.598C136.25 102.308 135.919 98.687 136.563 95.1939C137.207 91.7007 138.797 88.492 141.133 85.9737C143.469 83.4553 146.444 81.7404 149.684 81.0459C152.924 80.3514 156.282 80.7085 159.333 82.072C162.384 83.4355 164.992 85.7442 166.827 88.706C168.661 91.6679 169.639 95.1497 169.638 98.7113C169.633 103.483 167.873 108.058 164.744 111.432C161.615 114.806 157.372 116.704 152.946 116.709ZM152.946 81.179C149.73 81.179 146.587 82.2072 143.913 84.1337C141.239 86.0602 139.155 88.7983 137.924 92.0019C136.693 95.2056 136.371 98.7307 136.999 102.132C137.626 105.533 139.175 108.657 141.449 111.108C143.723 113.56 146.62 115.23 149.774 115.907C152.928 116.583 156.197 116.236 159.169 114.909C162.14 113.582 164.679 111.335 166.466 108.452C168.253 105.569 169.206 102.179 169.206 98.7113C169.201 94.063 167.487 89.6066 164.438 86.3197C161.39 83.0329 157.257 81.1841 152.946 81.179Z" fill="#407BFF"/>
<path d="M165.588 98.7048C165.588 102.32 164.256 105.787 161.885 108.344C159.514 110.9 156.299 112.336 152.946 112.336H152.652C150.512 112.29 148.42 111.653 146.574 110.486C145.146 109.586 143.895 108.395 142.89 106.979C141.206 104.606 140.296 101.699 140.304 98.7113C140.305 98.1817 140.333 97.6525 140.388 97.1263C140.722 94.0821 141.997 91.248 144.008 89.0804C146.018 86.9128 148.647 85.5379 151.47 85.1771C151.96 85.1176 152.453 85.0873 152.946 85.0866C156.245 85.0905 159.413 86.484 161.773 88.9699C164.134 91.4559 165.5 94.8376 165.582 98.3943C165.588 98.4978 165.588 98.6013 165.588 98.7048Z" fill="#407BFF"/>
<path opacity="0.1" d="M160.608 87.8943L142.89 106.999C141.206 104.626 140.296 101.719 140.304 98.7307C140.305 98.2011 140.333 97.6719 140.388 97.1456L151.47 85.1965C151.96 85.137 152.453 85.1067 152.946 85.106C155.715 85.1024 158.407 86.0824 160.608 87.8943Z" fill="white"/>
<path opacity="0.1" d="M165.582 98.3878L152.652 112.33C150.513 112.283 148.42 111.646 146.574 110.479L163.86 91.8472C164.945 93.8319 165.538 96.0844 165.582 98.3878Z" fill="white"/>
<path d="M149.922 218.215L147.708 221.897L142.152 231.141L139.788 235.068L133.47 245.575H131.004L137.424 231.141L139.788 225.824L141.276 222.472L143.172 218.215H149.922Z" fill="#407BFF"/>
<path opacity="0.2" d="M149.922 218.215L147.708 221.897L142.152 231.141L139.788 235.068L133.47 245.575H131.004L137.424 231.141L139.788 225.824L141.276 222.472L143.172 218.215H149.922Z" fill="black"/>
<path d="M176.34 218.215L175.626 219.406L168.57 231.141L166.206 235.068L159.888 245.575H157.428L163.842 231.141L166.206 225.824L168.792 220.014L169.59 218.215H176.34Z" fill="#407BFF"/>
<path opacity="0.2" d="M176.34 218.215L175.626 219.406L168.57 231.141L166.206 235.068L159.888 245.575H157.428L163.842 231.141L166.206 225.824L168.792 220.014L169.59 218.215H176.34Z" fill="black"/>
<path d="M178.884 208.479H126.564V218.215H178.884V208.479Z" fill="#407BFF"/>
<path opacity="0.2" d="M178.884 208.479H126.564V218.215H178.884V208.479Z" fill="white"/>
<path d="M148.572 245.575H146.106L139.788 235.068L137.424 231.141L132.678 223.242L129.654 218.215H136.404L138.414 222.725L139.788 225.824L142.152 231.141L148.572 245.575Z" fill="#407BFF"/>
<path d="M174.989 245.575H172.523L166.205 235.068L163.841 231.141L157.745 220.997L156.071 218.215H162.821L163.817 220.454L166.205 225.824L168.569 231.141L174.989 245.575Z" fill="#407BFF"/>
<path d="M235.68 87.1568C233.696 91.5177 231.437 95.7263 228.918 99.7529C228.45 100.471 227.982 101.17 227.502 101.83C225.054 105.226 222.486 107.71 220.452 107.122C209.13 103.848 201.978 93.5357 201.978 93.5357L204.102 90.9479C204.102 90.9479 217.758 96.6863 218.826 96.5763C219.894 96.4664 226.626 78.3001 226.626 78.3001L235.68 87.1568Z" fill="#407BFF"/>
<path opacity="0.2" d="M229.962 95.3018L228.918 99.7529C228.45 100.471 227.982 101.17 227.502 101.83C227.446 100.525 227.218 99.2348 226.824 97.9996C225.978 95.4701 222.894 92.2806 224.226 88.9424C225.233 86.2724 226.036 83.518 226.626 80.7067L229.962 95.3018Z" fill="black"/>
<path opacity="0.2" d="M224.267 105.317C223.28 104.486 222.035 104.095 220.788 104.223C219.542 104.352 218.388 104.991 217.565 106.009C217.373 106.235 217.067 105.899 217.253 105.672C218.144 104.58 219.387 103.893 220.729 103.749C222.072 103.605 223.416 104.015 224.489 104.896C224.711 105.077 224.489 105.485 224.267 105.304V105.317Z" fill="black"/>
<path d="M220.62 98.6336L205.986 98.3102C205.523 98.2891 205.077 98.1126 204.712 97.8052C204.346 97.4979 204.078 97.075 203.946 96.5958L199.38 75.8934C199.326 75.688 199.32 75.4714 199.363 75.2629C199.405 75.0544 199.495 74.8604 199.624 74.6984C199.753 74.5363 199.917 74.4112 200.102 74.3341C200.286 74.257 200.486 74.2304 200.682 74.2567L215.316 74.5866C215.779 74.6063 216.225 74.7815 216.59 75.0878C216.956 75.394 217.224 75.816 217.356 76.2945L221.922 96.9969C221.976 97.2023 221.982 97.4189 221.94 97.6274C221.897 97.8359 221.808 98.0299 221.679 98.1919C221.55 98.354 221.386 98.4791 221.201 98.5562C221.016 98.6333 220.817 98.6599 220.62 98.6336Z" fill="#263238"/>
<path opacity="0.2" d="M220.62 98.6336L205.986 98.3102C205.523 98.2891 205.077 98.1126 204.712 97.8052C204.346 97.4979 204.078 97.075 203.946 96.5958L199.38 75.8934C199.326 75.688 199.32 75.4714 199.363 75.2629C199.405 75.0544 199.495 74.8604 199.624 74.6984C199.753 74.5363 199.917 74.4112 200.102 74.3341C200.286 74.257 200.486 74.2304 200.682 74.2567L215.316 74.5866C215.779 74.6063 216.225 74.7815 216.59 75.0878C216.956 75.394 217.224 75.816 217.356 76.2945L221.922 96.9969C221.976 97.2023 221.982 97.4189 221.94 97.6274C221.897 97.8359 221.808 98.0299 221.679 98.1919C221.55 98.354 221.386 98.4791 221.201 98.5562C221.016 98.6333 220.817 98.6599 220.62 98.6336Z" fill="white"/>
<path d="M219.126 98.6013L204.486 98.2778C204.024 98.2545 203.581 98.077 203.216 97.7699C202.852 97.4627 202.585 97.0412 202.452 96.5634L197.88 75.8611C197.826 75.6557 197.82 75.439 197.863 75.2305C197.905 75.022 197.995 74.8281 198.124 74.666C198.253 74.504 198.417 74.3788 198.602 74.3017C198.786 74.2247 198.986 74.1981 199.182 74.2243L213.822 74.5478C214.284 74.5711 214.728 74.7486 215.093 75.0557C215.457 75.3628 215.724 75.7844 215.856 76.2622L220.422 96.9645C220.476 97.1693 220.482 97.3853 220.44 97.5932C220.398 97.8012 220.308 97.9946 220.18 98.1565C220.052 98.3184 219.889 98.4437 219.705 98.5213C219.521 98.5989 219.322 98.6263 219.126 98.6013Z" fill="#263238"/>
<path opacity="0.2" d="M206.436 86.9757C206.593 87.5797 206.922 88.1155 207.376 88.5077C207.83 88.9 208.387 89.1289 208.968 89.1623C209.216 89.1895 209.466 89.1503 209.697 89.0482C209.928 88.9462 210.132 88.7844 210.291 88.5772C210.45 88.3699 210.559 88.1237 210.609 87.8601C210.658 87.5966 210.647 87.3239 210.576 87.0662C210.421 86.4615 210.094 85.9244 209.64 85.5309C209.187 85.1374 208.631 84.9073 208.05 84.8731C207.801 84.8476 207.551 84.8881 207.32 84.991C207.089 85.0939 206.886 85.2561 206.726 85.4635C206.567 85.6709 206.457 85.9171 206.407 86.1807C206.356 86.4442 206.366 86.7172 206.436 86.9757Z" fill="white"/>
<path d="M201.474 88.3019C201.474 88.3019 204.678 88.1078 205.188 88.8194C205.698 89.5311 202.482 90.2168 202.482 90.2168C202.482 90.2168 204.378 90.1586 204.882 90.6438C205.386 91.129 203.01 91.9054 203.01 91.9054C203.01 91.9054 204.276 91.9054 204.324 92.6688C204.372 93.4322 203.892 93.6909 203.19 93.8721C202.899 93.9485 202.596 93.9508 202.305 93.879C202.013 93.8071 201.741 93.663 201.51 93.458C201.234 93.1604 201.468 92.3906 201.468 92.3906C201.468 92.3906 200.268 91.7436 200.22 91.2519C200.211 91.0998 200.232 90.9474 200.282 90.8047C200.331 90.6619 200.409 90.5322 200.508 90.4238C200.336 90.3875 200.174 90.3051 200.039 90.1841C199.904 90.0632 199.799 89.9076 199.734 89.7316C199.67 89.579 199.642 89.4118 199.653 89.2447C199.663 89.0777 199.712 88.916 199.794 88.7741C199.547 88.2053 199.334 87.6197 199.158 87.0209C199.002 86.3739 200.064 85.8629 200.706 85.4553C201.348 85.0477 202.506 86.471 203.562 86.7492C203.562 86.7492 204.102 87.105 203.526 87.5385C202.95 87.9719 201.726 87.3185 201.438 87.3444C201.15 87.3702 201.474 88.3019 201.474 88.3019Z" fill="#B55B52"/>
<path d="M228.726 47.997C228.726 47.997 224.748 49.6985 225.726 53.1209C226.704 56.5432 224.124 56.2262 223.818 59.545C223.512 62.8639 228.738 63.8861 227.316 66.8556C225.894 69.825 223.716 70.6855 225.144 73.5773C226.572 76.4692 228.48 79.7816 228.48 81.923C228.48 86.995 237.48 74.496 244.41 76.5533C251.34 78.6106 253.158 71.2807 250.326 69.5857C247.494 67.8907 243.822 65.3999 244.896 60.9683C245.97 56.5367 246.744 54.4989 243.594 52.1957C240.444 49.8926 242.172 49.5109 240.354 47.3954C238.716 45.4933 236.328 47.4536 233.754 46.632C231.18 45.8104 228.726 47.997 228.726 47.997Z" fill="#263238"/>
<path d="M229.973 64.229C230.007 64.5415 230.126 64.8362 230.315 65.0757C230.505 65.3153 230.755 65.4889 231.036 65.5748C231.317 65.6607 231.615 65.6548 231.893 65.5581C232.17 65.4613 232.415 65.278 232.596 65.0312C232.777 64.7844 232.887 64.4853 232.91 64.1716C232.934 63.858 232.87 63.5438 232.728 63.269C232.586 62.9941 232.372 62.7708 232.112 62.6273C231.852 62.4838 231.559 62.4266 231.269 62.4628C231.076 62.4869 230.89 62.5517 230.72 62.6535C230.551 62.7553 230.402 62.8922 230.281 63.0562C230.161 63.2202 230.072 63.4082 230.019 63.6095C229.966 63.8107 229.95 64.0212 229.973 64.229Z" fill="white"/>
<path d="M227.058 232.642L225.456 239.765H221.976L221.814 232.642H227.058Z" fill="#B55B52"/>
<path d="M211.865 244.805C212.057 242.482 212.999 241.79 214.169 241.713C215.339 241.635 219.719 240.063 219.719 240.063C219.719 240.063 220.625 238.588 221.429 238.29C222.233 237.993 222.995 238.866 222.995 238.866L225.185 238.581C225.185 238.581 225.839 237.52 226.289 238.445C226.985 239.888 226.889 243.873 226.835 244.805H211.865Z" fill="#407BFF"/>
<path d="M212.154 244.197H214.866L226.74 244.132C226.89 244.132 226.86 243.88 226.71 243.886H225.906C225.906 243.886 225.906 243.886 225.906 243.854C225.741 243.579 225.631 243.27 225.582 242.947C225.533 242.624 225.547 242.293 225.623 241.976C225.698 241.659 225.834 241.362 226.021 241.104C226.208 240.846 226.442 240.632 226.71 240.477C226.836 240.406 226.71 240.186 226.572 240.263C226.286 240.432 226.036 240.661 225.835 240.937C225.634 241.212 225.488 241.529 225.404 241.868C225.321 242.207 225.302 242.561 225.349 242.908C225.396 243.254 225.508 243.587 225.678 243.886H224.004L212.13 243.951C211.968 243.951 211.998 244.203 212.154 244.197Z" fill="black"/>
<path d="M220.379 241.066C219.779 240.283 218.861 240.063 218.201 240.652C218.093 240.749 217.955 240.535 218.057 240.438C218.813 239.791 219.857 240.056 220.559 240.943C220.661 241.072 220.481 241.195 220.379 241.066Z" fill="white"/>
<path d="M219.127 241.486C218.527 240.703 217.609 240.477 216.949 241.072C216.847 241.163 216.703 240.949 216.811 240.859C217.561 240.179 218.611 240.47 219.313 241.357C219.415 241.486 219.229 241.609 219.127 241.486Z" fill="white"/>
<path d="M217.883 241.9C217.283 241.117 216.365 240.897 215.705 241.486C215.597 241.583 215.459 241.363 215.561 241.273C216.317 240.593 217.361 240.891 218.063 241.771C218.165 241.907 217.985 242.03 217.883 241.9Z" fill="white"/>
<path d="M241.458 139.288C240.43 148.852 238.888 158.344 236.838 167.715C236.106 171.191 235.274 174.896 234.342 178.829C236.904 201.641 226.878 234.596 226.878 234.596L221.508 234.467C221.508 234.467 220.836 197.636 221.466 178.357C222.498 146.767 226.068 116.677 226.068 116.677L240.696 116.612C240.696 116.612 243.222 121.361 241.458 139.288Z" fill="#263238"/>
<path opacity="0.2" d="M241.458 139.288C240.43 148.852 238.888 158.344 236.838 167.715C233.76 155.08 239.328 128.115 239.328 128.115L241.458 139.288Z" fill="black"/>
<path d="M220.89 235.832L220.722 233.348H227.886L227.478 235.832H220.89Z" fill="#263238"/>
<path d="M249.324 232.642L247.716 239.765H244.236L244.08 232.642H249.324Z" fill="#B55B52"/>
<path d="M243.023 235.832L242.855 233.348H250.019L249.611 235.832H243.023Z" fill="#263238"/>
<path d="M234.127 244.805C234.313 242.482 235.261 241.79 236.431 241.713C237.601 241.635 241.981 240.063 241.981 240.063C241.981 240.063 242.887 238.588 243.685 238.29C244.483 237.993 245.257 238.866 245.257 238.866L247.441 238.581C247.441 238.581 248.095 237.52 248.551 238.445C249.247 239.888 249.151 243.873 249.097 244.805H234.127Z" fill="#407BFF"/>
<path d="M234.415 244.197H237.133L249.007 244.132C249.157 244.132 249.127 243.88 248.971 243.886H248.173V243.854C248.009 243.578 247.9 243.269 247.852 242.946C247.805 242.622 247.819 242.292 247.895 241.975C247.971 241.658 248.107 241.362 248.294 241.104C248.481 240.846 248.716 240.633 248.983 240.477C249.109 240.406 248.983 240.186 248.845 240.263C248.559 240.431 248.308 240.66 248.107 240.935C247.905 241.211 247.758 241.528 247.674 241.867C247.59 242.206 247.57 242.559 247.617 242.907C247.664 243.254 247.775 243.587 247.945 243.886H246.271L234.403 243.951C234.235 243.951 234.265 244.203 234.415 244.197Z" fill="black"/>
<path d="M242.645 241.066C242.045 240.283 241.121 240.063 240.467 240.652C240.359 240.749 240.215 240.535 240.323 240.438C241.079 239.791 242.123 240.056 242.825 240.943C242.927 241.072 242.741 241.195 242.645 241.066Z" fill="white"/>
<path d="M241.416 241.486C240.816 240.703 239.898 240.477 239.238 241.072C239.136 241.163 238.992 240.949 239.094 240.859C239.85 240.179 240.894 240.47 241.596 241.357C241.704 241.486 241.518 241.609 241.416 241.486Z" fill="white"/>
<path d="M240.126 241.9C239.526 241.117 238.602 240.897 237.948 241.486C237.84 241.583 237.696 241.363 237.804 241.273C238.56 240.593 239.604 240.891 240.306 241.771C240.408 241.907 240.222 242.03 240.126 241.9Z" fill="white"/>
<path d="M236.424 117.887C236.424 117.887 239.154 161.497 240.024 178.829C241.05 198.632 243.348 232.384 243.654 234.59H249.204C248.568 235.237 256.332 204.966 253.2 180.298C256.134 156.71 259.704 139.437 255.102 117.22L236.424 117.887Z" fill="#263238"/>
<path d="M256.794 118.948C245.13 123.101 225.528 121.736 225.528 118.857C225.528 110.744 228.192 101.623 227.478 96.337C221.964 92.1771 226.278 88.4183 225.792 82.2529C225.631 79.9812 226.263 77.7264 227.564 75.931C228.865 74.1357 230.741 72.9293 232.824 72.5487C233.82 72.3676 234.852 72.1864 235.866 72.0441L236.466 71.96C239.173 71.6279 241.897 71.4895 244.62 71.5459C245.616 71.5459 246.648 71.5459 247.728 71.5783C248.808 71.6106 249.852 71.6494 250.848 71.7271C251.725 71.7932 252.58 72.0576 253.356 72.5029C254.132 72.9482 254.813 73.5645 255.353 74.3119C255.894 75.0592 256.283 75.9209 256.496 76.8409C256.708 77.7609 256.738 78.7188 256.584 79.6522C255.69 85.0649 255.123 90.5345 254.886 96.0264C254.838 97.1586 254.802 98.2519 254.79 99.3259C254.721 103.085 254.879 106.846 255.264 110.583C255.264 110.654 255.264 110.725 255.264 110.79C255.432 112.278 255.632 113.649 255.864 114.904C255.936 115.299 256.014 115.674 256.098 116.043C256.326 116.8 256.602 118.165 256.794 118.948Z" fill="#407BFF"/>
<path opacity="0.2" d="M235.61 82.3435C235.61 82.4241 235.587 82.5029 235.546 82.5699C235.504 82.637 235.445 82.6892 235.376 82.7201C235.307 82.7509 235.231 82.759 235.158 82.7432C235.084 82.7275 235.017 82.6887 234.964 82.6317C234.911 82.5747 234.875 82.5021 234.861 82.423C234.846 82.344 234.854 82.262 234.882 82.1875C234.911 82.1131 234.959 82.0494 235.022 82.0046C235.084 81.9598 235.157 81.9359 235.232 81.9359C235.332 81.9359 235.428 81.9789 235.499 82.0553C235.57 82.1317 235.61 82.2354 235.61 82.3435Z" fill="black"/>
<path opacity="0.2" d="M235.003 86.3675C235.208 86.3675 235.375 86.1879 235.375 85.9664C235.375 85.7449 235.208 85.5653 235.003 85.5653C234.797 85.5653 234.631 85.7449 234.631 85.9664C234.631 86.1879 234.797 86.3675 235.003 86.3675Z" fill="black"/>
<path opacity="0.2" d="M235.003 90.0551C235.208 90.0551 235.375 89.8755 235.375 89.654C235.375 89.4325 235.208 89.2529 235.003 89.2529C234.797 89.2529 234.631 89.4325 234.631 89.654C234.631 89.8755 234.797 90.0551 235.003 90.0551Z" fill="black"/>
<path d="M244.638 71.5201C241.878 76.7539 235.38 79.8851 235.38 79.8851C234.498 77.5431 234.78 73.7844 235.866 72.0182L236.466 71.9341C239.179 71.6011 241.909 71.4628 244.638 71.5201Z" fill="#B55B52"/>
<path opacity="0.2" d="M255.92 114.879C244.43 113.513 233.354 101.83 233.354 101.83L254.918 109.593C255.012 110.002 255.143 110.401 255.308 110.783C255.476 112.258 255.68 113.623 255.92 114.879Z" fill="black"/>
<path opacity="0.2" d="M254.454 98.6013C254.109 100.819 253.991 103.071 254.1 105.317C252.506 106.053 250.717 106.134 249.072 105.543C246.819 104.609 244.928 102.878 243.708 100.633C243.708 100.633 250.254 102.024 251.874 101.377C253.326 100.794 249.852 88.6706 249.738 88.3278L254.538 95.386C254.526 96.4858 254.466 97.5532 254.454 98.6013Z" fill="black"/>
<path d="M235.793 73.5773C235.768 73.6612 235.734 73.7416 235.691 73.8167C234.749 75.4147 235.769 76.8703 237.389 76.7474C237.544 76.7336 237.698 76.7099 237.851 76.6762C238.433 76.5516 238.964 76.2325 239.369 75.764C240.612 74.3258 241.956 72.9934 243.389 71.7788C240.989 70.3749 240.077 65.387 239.849 62.2687L236.075 67.4443L235.373 68.5764C235.719 69.2049 235.993 69.8761 236.189 70.5755C236.355 71.0727 236.406 71.6062 236.337 72.1295C236.268 72.6529 236.081 73.1499 235.793 73.5773Z" fill="#B55B52"/>
<path d="M243.025 71.5201C244.351 71.166 245.737 71.166 247.063 71.5201L243.397 78.3065C241.471 76.7927 239.257 78.7594 235.381 79.8851C238.592 77.9047 241.236 75.011 243.025 71.5201Z" fill="#407BFF"/>
<path opacity="0.2" d="M243.025 71.5201C244.351 71.166 245.737 71.166 247.063 71.5201L243.397 78.3065C241.471 76.7927 239.257 78.7594 235.381 79.8851C238.592 77.9047 241.236 75.011 243.025 71.5201Z" fill="white"/>
<path d="M236.357 71.8306C236.357 71.8306 234.119 71.3842 232.823 72.5228C232.353 74.2742 232.002 76.0602 231.773 77.8666C231.773 77.8666 233.927 76.7086 235.373 79.8851C235.379 79.8851 234.647 74.8195 236.357 71.8306Z" fill="#407BFF"/>
<path opacity="0.2" d="M236.357 71.8306C236.357 71.8306 234.119 71.3842 232.823 72.5228C232.353 74.2742 232.002 76.0602 231.773 77.8666C231.773 77.8666 233.927 76.7086 235.373 79.8851C235.379 79.8851 234.647 74.8195 236.357 71.8306Z" fill="white"/>
<g opacity="0.2">
<path d="M236.197 70.5755C236.001 69.8761 235.727 69.2049 235.381 68.5764L236.083 67.4443L238.483 67.5025C238.058 68.7717 237.254 69.8527 236.197 70.5755Z" fill="black"/>
</g>
<path d="M240.546 56.7114C240.924 61.8352 241.182 63.9896 239.19 66.9461C236.19 71.3971 230.394 70.7567 228.63 65.8593C227.046 61.4471 226.692 53.8131 230.946 51.1089C235.2 48.4046 240.168 51.5941 240.546 56.7114Z" fill="#B55B52"/>
<path d="M231.421 50.1449C231.421 50.1449 230.425 54.5118 232.813 55.6051C235.201 56.6985 238.459 55.1976 238.459 58.5229C238.459 60.399 241.189 59.8168 241.021 58.0894C240.853 56.3621 241.987 53.0626 238.621 51.2706C236.364 50.1829 233.871 49.7931 231.421 50.1449Z" fill="#263238"/>
<path d="M238.326 60.8584C238.068 60.85 237.815 60.7769 237.588 60.6449C235.98 59.7844 235.758 55.3916 235.752 55.204H236.058C236.058 55.2493 236.274 59.5903 237.726 60.3796C237.867 60.4752 238.027 60.5327 238.193 60.5473C238.359 60.562 238.526 60.5333 238.68 60.4637C239.214 60.1661 239.358 59.228 239.358 59.2216L239.658 59.2733C239.62 59.5686 239.527 59.8525 239.383 60.1073C239.24 60.3621 239.05 60.5825 238.824 60.7548C238.668 60.831 238.497 60.8665 238.326 60.8584Z" fill="#263238"/>
<path d="M231.654 51.5747C231.654 51.5747 229.02 56.1033 227.196 55.0358C225.372 53.9684 229.716 48.8834 231.396 50.1449C233.076 51.4065 231.654 51.5747 231.654 51.5747Z" fill="#263238"/>
<path d="M230.609 64.6042C230.609 64.6042 232.919 63.4785 233.429 62.3916C233.429 62.3916 233.771 64.3325 232.559 65.0506C232.242 65.2539 231.865 65.3209 231.503 65.2382C231.142 65.1555 230.823 64.9291 230.609 64.6042Z" fill="white"/>
<path d="M232.452 58.9822C232.506 59.3963 232.344 59.7586 232.092 59.7974C231.84 59.8362 231.6 59.5321 231.546 59.1504C231.492 58.7687 231.648 58.3741 231.9 58.3353C232.152 58.2965 232.398 58.6005 232.452 59.0146" fill="#263238"/>
<path d="M228.599 59.6809C228.653 60.0949 228.491 60.4572 228.245 60.4961C227.999 60.5349 227.747 60.2308 227.693 59.8168C227.639 59.4027 227.795 59.0404 228.047 59.0016C228.299 58.9628 228.545 59.2669 228.599 59.6486" fill="#263238"/>
<path d="M228.162 59.0081L227.208 58.8593C227.208 58.8593 227.778 59.5645 228.162 59.0081Z" fill="#263238"/>
<path d="M230.267 59.5968C230.267 59.5968 229.751 60.7872 229.157 61.8482C229.114 61.9292 229.088 62.0192 229.08 62.1122C229.073 62.2051 229.084 62.2987 229.113 62.3866C229.142 62.4745 229.188 62.5546 229.249 62.6213C229.309 62.6881 229.382 62.7399 229.463 62.7733C229.869 62.9077 230.288 62.9923 230.711 63.0256L230.267 59.5968Z" fill="#A02724"/>
<path d="M242.675 59.9785C242.557 60.4279 242.351 60.845 242.072 61.202C241.792 61.5589 241.446 61.8476 241.055 62.0488C240.053 62.521 239.369 61.363 239.501 60.0626C239.621 58.8916 240.281 57.2355 241.361 57.3196C242.441 57.4037 243.017 58.7946 242.675 59.9785Z" fill="#B55B52"/>
<path d="M240.87 61.1042H240.672V63.485H240.87V61.1042Z" fill="white"/>
<path d="M240.804 64.7659C241.248 64.7659 241.608 64.3778 241.608 63.899C241.608 63.4202 241.248 63.0321 240.804 63.0321C240.36 63.0321 240 63.4202 240 63.899C240 64.3778 240.36 64.7659 240.804 64.7659Z" fill="white"/>
<path d="M233.562 57.9018C233.53 57.8975 233.5 57.886 233.473 57.8682C233.446 57.8503 233.423 57.8265 233.406 57.7983C233.254 57.5376 233.047 57.3195 232.802 57.1621C232.557 57.0046 232.28 56.9122 231.996 56.8926C231.936 56.8926 231.879 56.8676 231.837 56.8229C231.794 56.7781 231.769 56.7173 231.768 56.6532C231.767 56.6209 231.772 56.5888 231.783 56.5586C231.793 56.5284 231.81 56.5009 231.83 56.4774C231.851 56.454 231.875 56.4352 231.903 56.4221C231.93 56.4089 231.96 56.4017 231.99 56.4009C232.351 56.4189 232.704 56.5307 233.017 56.7266C233.331 56.9225 233.595 57.1969 233.79 57.5266C233.807 57.5528 233.818 57.5824 233.825 57.6136C233.831 57.6448 233.831 57.6771 233.825 57.7084C233.82 57.7398 233.808 57.7696 233.792 57.7961C233.776 57.8227 233.754 57.8454 233.73 57.863C233.707 57.8817 233.681 57.8949 233.653 57.9016C233.625 57.9083 233.596 57.9084 233.568 57.9018" fill="#263238"/>
<path d="M227.051 58.0829C227.022 58.0869 226.993 58.0843 226.965 58.0754C226.937 58.0665 226.912 58.0514 226.889 58.0312C226.843 57.9906 226.813 57.9319 226.806 57.8677C226.799 57.8035 226.816 57.7391 226.853 57.6883C227.073 57.3797 227.358 57.1324 227.685 56.9669C228.012 56.8015 228.371 56.7228 228.731 56.7373C228.764 56.7359 228.796 56.742 228.826 56.7552C228.856 56.7684 228.884 56.7883 228.906 56.8138C228.928 56.8392 228.945 56.8695 228.956 56.9026C228.967 56.9357 228.97 56.9709 228.967 57.0058C228.964 57.0407 228.955 57.0745 228.938 57.1049C228.922 57.1353 228.9 57.1617 228.874 57.1822C228.848 57.2027 228.818 57.2169 228.786 57.2239C228.754 57.2308 228.721 57.2304 228.689 57.2225C228.404 57.2177 228.121 57.2848 227.864 57.4185C227.607 57.5521 227.382 57.7486 227.207 57.9924C227.19 58.0203 227.167 58.0432 227.14 58.059C227.113 58.0748 227.082 58.083 227.051 58.0829Z" fill="#263238"/>
<path d="M232.013 58.3094L231.053 58.1606C231.053 58.1606 231.653 58.8658 232.013 58.3094Z" fill="#263238"/>
<path d="M256.284 76.0616C256.284 76.0616 264.534 100.232 263.214 108.144C261.042 121.167 233.856 103.719 233.334 101.247L235.764 97.4885C235.764 97.4885 253.356 104.391 254.322 103.732C255.288 103.072 248.772 84.5108 248.772 84.5108C248.772 84.5108 249.726 73.2927 256.284 76.0616Z" fill="#407BFF"/>
<path opacity="0.2" d="M263.13 106.158C261.908 106.571 260.854 107.421 260.142 108.568C259.429 109.715 259.101 111.09 259.212 112.465C259.212 112.769 258.798 112.834 258.774 112.53C258.652 111.05 259.001 109.569 259.765 108.331C260.528 107.094 261.66 106.174 262.974 105.724C263.238 105.627 263.412 106.067 263.142 106.158H263.13Z" fill="black"/>
<path d="M236.472 98.2455C236.472 98.2455 233.934 91.032 233.34 90.4239C232.746 89.8158 226.098 89.8416 225.414 89.654C224.73 89.4664 225.108 90.7991 226.32 90.9803C227.532 91.1614 229.74 91.776 229.74 91.776C229.74 91.776 227.688 91.6207 227.298 92.1254C226.908 92.63 225.192 96.2529 225.666 97.9479C226.14 99.6429 228.066 99.7464 228.666 99.8887C229.266 100.031 228.666 98.252 228.666 98.252C229.176 98.4864 229.716 98.6348 230.268 98.6919C231.216 98.8083 232.452 100.769 233.388 101.215C235.164 102.127 237.288 98.7501 236.472 98.2455Z" fill="#B55B52"/>
<path d="M231.396 92.0347C230.873 91.9218 230.339 91.8827 229.806 91.9183C229.608 91.9183 229.572 91.6013 229.77 91.5884C230.333 91.546 230.898 91.5852 231.45 91.7048C231.488 91.7158 231.52 91.7415 231.541 91.777C231.562 91.8124 231.57 91.855 231.563 91.8964C231.556 91.9377 231.536 91.9748 231.505 92.0004C231.474 92.026 231.435 92.0383 231.396 92.0347Z" fill="#994731"/>
<path d="M229.776 93.5292C228.864 93.1993 227.856 92.8822 226.944 93.3804C226.77 93.4774 226.59 93.2057 226.764 93.1087C227.79 92.52 228.87 92.8499 229.908 93.2251C230.094 93.2898 229.962 93.5939 229.776 93.5292Z" fill="#994731"/>
<path d="M228.917 95.0107C228.509 94.796 228.058 94.6931 227.603 94.7111C227.149 94.7292 226.706 94.8676 226.313 95.1142C226.145 95.2242 225.965 94.9525 226.139 94.8425C226.575 94.562 227.069 94.4028 227.575 94.3791C228.082 94.3553 228.587 94.4679 229.043 94.7067C229.075 94.7282 229.099 94.7615 229.11 94.8002C229.12 94.839 229.118 94.8806 229.103 94.9176C229.087 94.9546 229.06 94.9844 229.026 95.0015C228.992 95.0186 228.953 95.0219 228.917 95.0107Z" fill="#994731"/>
<path d="M228.617 98.4848C228.319 98.3039 228.059 98.059 227.853 97.7652C227.646 97.4714 227.498 97.135 227.417 96.7769C227.375 96.5699 227.663 96.4534 227.711 96.6604C227.775 96.9753 227.897 97.2727 228.072 97.5343C228.246 97.7958 228.469 98.0159 228.725 98.1808C228.899 98.2843 228.767 98.5883 228.599 98.4848H228.617Z" fill="#994731"/>
<path d="M227.748 97.6891C227.591 97.6294 227.42 97.6221 227.259 97.6683C227.097 97.7144 226.952 97.8118 226.842 97.9479C226.71 98.1096 226.476 97.8961 226.608 97.7344C226.762 97.5435 226.966 97.4077 227.194 97.3453C227.421 97.2828 227.661 97.2967 227.88 97.385C228.066 97.4627 227.934 97.7667 227.748 97.6891Z" fill="#994731"/>
<path d="M228.126 62.9998C227.922 62.9807 227.725 62.9127 227.548 62.8008C227.372 62.6888 227.221 62.5358 227.106 62.3528C226.731 61.8385 226.487 61.2274 226.398 60.5802C226.176 59.1245 226.656 57.8177 227.466 57.6754C228.276 57.5331 229.128 58.5941 229.35 60.0497C229.465 60.6979 229.419 61.3673 229.218 61.9905C229.156 62.2288 229.037 62.4453 228.873 62.618C228.708 62.7907 228.505 62.9135 228.282 62.9739L228.126 62.9998ZM227.622 57.8242H227.496C226.764 57.9536 226.338 59.1698 226.548 60.5349C226.63 61.1557 226.862 61.7424 227.22 62.2364C227.334 62.4162 227.49 62.5604 227.672 62.6547C227.854 62.7489 228.056 62.7899 228.258 62.7733C228.454 62.7194 228.633 62.61 228.776 62.4564C228.92 62.3029 229.023 62.1107 229.074 61.9C229.264 61.3099 229.307 60.6764 229.2 60.0626C228.99 58.8205 228.3 57.8565 227.61 57.8565L227.622 57.8242Z" fill="white"/>
<path d="M232.255 62.2493C231.487 62.2493 230.731 61.2271 230.521 59.8621C230.311 58.497 230.779 57.0996 231.589 56.9573C232.399 56.815 233.251 57.876 233.473 59.3316C233.588 59.9798 233.542 60.6492 233.341 61.2724C233.278 61.5101 233.158 61.726 232.994 61.8985C232.83 62.071 232.627 62.1942 232.405 62.2558L232.255 62.2493ZM231.745 57.0737H231.619C230.887 57.2031 230.461 58.4194 230.671 59.7844C230.881 61.1495 231.661 62.1523 232.381 62.0229C232.577 61.9689 232.756 61.8595 232.899 61.706C233.043 61.5524 233.145 61.3603 233.197 61.1495C233.39 60.5601 233.433 59.9258 233.323 59.3122C233.125 58.07 232.435 57.1061 231.727 57.1061L231.745 57.0737Z" fill="white"/>
<path d="M226.512 60.6578L226.41 60.5349C226.728 60.2593 227.119 60.0986 227.526 60.0756V60.2438C227.157 60.269 226.804 60.4132 226.512 60.6578Z" fill="white"/>
<path d="M229.225 59.7974L229.105 59.7003C229.274 59.4595 229.521 59.2954 229.796 59.2403C230.071 59.1852 230.356 59.2432 230.593 59.4027L230.515 59.5451C230.31 59.4045 230.064 59.3524 229.825 59.3991C229.586 59.4459 229.372 59.5881 229.225 59.7974Z" fill="white"/>
<path d="M233.383 59.1245L233.311 58.9757C233.341 58.9757 236.605 57.0931 240.013 57.7271V57.8953C236.635 57.2678 233.413 59.1051 233.383 59.1245Z" fill="white"/>
<path d="M116.525 233.186L109.247 233.775L95.6748 200.301L89.0508 182.504L106.103 174.1L108.167 186.586L108.227 186.793L116.525 233.186Z" fill="#263238"/>
<path d="M109.824 232.144L112.44 239.558H116.058L115.272 232.144H109.824Z" fill="#B55B52"/>
<path d="M117.654 235.657L117.348 231.872H107.658L108.564 235.657H117.654Z" fill="#263238"/>
<path d="M127.225 244.805C126.721 242.392 125.641 241.667 124.423 241.57C123.205 241.473 118.423 239.856 118.423 239.856C118.423 239.856 117.283 238.323 116.413 238.012C116.128 237.946 115.831 237.968 115.557 238.074C115.282 238.18 115.041 238.367 114.859 238.614L112.555 238.31C112.555 238.31 111.739 237.216 111.355 238.174C110.953 239.28 111.085 244.042 111.109 244.792L127.225 244.805Z" fill="#2A65E9"/>
<path d="M126.845 244.177H124.025L111.689 244.113C111.657 244.113 111.627 244.099 111.604 244.075C111.582 244.051 111.569 244.018 111.569 243.983C111.569 243.949 111.582 243.916 111.604 243.892C111.627 243.868 111.657 243.854 111.689 243.854H112.529C112.526 243.844 112.526 243.832 112.529 243.822C113.129 242.424 112.427 241.014 111.239 240.309C111.101 240.231 111.239 240.005 111.359 240.089C111.994 240.406 112.493 240.972 112.754 241.671C113.016 242.37 113.022 243.151 112.769 243.854H114.509L126.845 243.925C126.872 243.932 126.895 243.948 126.912 243.971C126.929 243.994 126.939 244.022 126.939 244.051C126.939 244.081 126.929 244.109 126.912 244.132C126.895 244.155 126.872 244.171 126.845 244.177Z" fill="black"/>
<path d="M117.887 240.917C117.997 240.722 118.143 240.554 118.318 240.424C118.492 240.294 118.689 240.206 118.898 240.165C119.106 240.124 119.32 240.131 119.525 240.186C119.731 240.241 119.923 240.342 120.089 240.483C120.215 240.58 120.335 240.361 120.209 240.263C120.015 240.105 119.793 239.992 119.556 239.933C119.319 239.873 119.074 239.868 118.835 239.917C118.596 239.967 118.37 240.07 118.17 240.22C117.971 240.37 117.803 240.563 117.677 240.787C117.587 240.917 117.797 241.046 117.887 240.917Z" fill="#E8EEFD"/>
<path d="M119.214 241.35C119.324 241.155 119.472 240.987 119.646 240.857C119.821 240.727 120.019 240.639 120.228 240.598C120.437 240.557 120.651 240.565 120.857 240.619C121.063 240.674 121.255 240.776 121.422 240.917C121.542 241.014 121.662 240.794 121.542 240.697C121.349 240.538 121.127 240.425 120.89 240.365C120.654 240.305 120.408 240.299 120.169 240.348C119.931 240.397 119.704 240.499 119.504 240.648C119.305 240.798 119.136 240.99 119.01 241.214C118.92 241.35 119.13 241.48 119.214 241.35Z" fill="#E8EEFD"/>
<path d="M120.589 241.777C120.7 241.583 120.848 241.416 121.023 241.288C121.198 241.16 121.396 241.072 121.604 241.032C121.813 240.992 122.027 240.999 122.232 241.054C122.437 241.109 122.63 241.21 122.797 241.35C122.917 241.447 123.037 241.227 122.917 241.124C122.723 240.967 122.5 240.855 122.264 240.796C122.027 240.737 121.782 240.732 121.543 240.781C121.305 240.83 121.078 240.933 120.879 241.082C120.679 241.232 120.511 241.424 120.385 241.648C120.295 241.784 120.499 241.913 120.589 241.777Z" fill="#E8EEFD"/>
<path d="M93.6787 205.244L94.9087 214.146L95.3407 217.355L99.0007 244.268H96.8047L91.5427 217.355L90.9187 214.146L89.1787 205.244H93.6787Z" fill="#2A65E9"/>
<path d="M85.0919 205.244L86.3159 214.146L86.7539 217.355L90.4139 244.268H88.2119L82.9499 217.355L82.3259 214.146L80.5859 205.244H85.0919Z" fill="#2A65E9"/>
<g opacity="0.2">
<path d="M85.0939 205.244L86.3179 214.146L86.7559 217.355L90.4159 244.268H88.2139L82.9519 217.355L82.3279 214.146L80.5879 205.244H85.0939Z" fill="black"/>
</g>
<path d="M44.2203 198.484L41.1603 214.146L40.5363 217.355L35.2743 244.268H33.0723L36.7383 217.355L37.1703 214.146L39.3303 198.484H44.2203Z" fill="#2A65E9"/>
<path d="M52.8121 198.484L49.7521 214.146L49.1221 217.355L43.8661 244.268H41.6641L45.3241 217.355L45.7621 214.146L47.9221 198.484H52.8121Z" fill="#2A65E9"/>
<g opacity="0.2">
<path d="M52.8121 198.484L49.7521 214.146L49.1221 217.355L43.8661 244.268H41.6641L45.3241 217.355L45.7621 214.146L47.9221 198.484H52.8121Z" fill="black"/>
</g>
<path d="M39.2944 205.367H93.8044L92.7184 200.754C90.9184 193.023 85.7704 187.815 79.9984 187.815H35.1484L39.2944 205.367Z" fill="#2A65E9"/>
<path d="M32.1483 175.633L37.3143 196.336L89.2803 196.4L86.0763 183.546C83.9403 174.967 76.8843 168.666 68.6763 168.51H68.6283C68.0283 166.033 62.1483 142.633 48.9663 143.06C35.0463 143.506 38.0643 168.51 38.0643 168.51H35.7123C33.1263 168.53 31.2843 172.166 32.1483 175.633Z" fill="#2A65E9"/>
<g opacity="0.2">
<path d="M32.1493 175.633L37.3153 196.336L89.2813 196.4L86.0773 183.546C83.9413 174.967 76.8853 168.666 68.6773 168.51H68.6293C68.0293 166.033 62.1493 142.633 48.9673 143.06C35.0473 143.506 38.0653 168.51 38.0653 168.51H35.7133C33.1273 168.53 31.2853 172.166 32.1493 175.633Z" fill="black"/>
</g>
<path d="M57.5645 141.358C57.5645 141.358 59.0405 161.342 61.3925 167.734C66.7925 182.4 76.2065 164.409 76.2065 164.409L69.9725 154.776L68.1725 139.961L57.5645 141.358Z" fill="#FF8B7B"/>
<path d="M69.6233 154.659L67.4033 155.164C67.3437 155.179 67.2918 155.218 67.2592 155.274C67.2266 155.33 67.2158 155.397 67.2293 155.462C67.2429 155.526 67.2795 155.582 67.3313 155.617C67.3831 155.652 67.4457 155.664 67.5053 155.649L69.7253 155.177C69.785 155.163 69.8372 155.124 69.8704 155.069C69.9036 155.014 69.9151 154.947 69.9023 154.883C69.8896 154.818 69.8537 154.762 69.8025 154.726C69.7513 154.69 69.689 154.678 69.6293 154.692L69.6233 154.659Z" fill="#742823"/>
<path d="M83.6396 137.153C83.6396 137.153 89.7236 156.303 91.8836 161.09C94.0436 165.877 85.4696 168.718 80.2556 167.152C75.0416 165.586 75.8636 141.921 75.8636 141.921L83.6396 137.153Z" fill="#E4897B"/>
<path d="M71.747 116.541C71.747 116.541 64.805 134.507 68.477 145.951L85.877 140.828C85.877 140.828 85.961 132.417 83.819 125.721C80.471 115.208 71.747 116.541 71.747 116.541Z" fill="#2A65E9"/>
<path d="M44.6397 179.224C41.0397 176.636 40.9497 165.463 41.6397 155.287C41.6757 152.699 41.7777 149.755 41.9817 146.611C42.1857 143.467 42.5037 140.142 42.9717 136.726C43.6291 131.685 44.6604 126.709 46.0557 121.846C46.9857 118.676 51.8157 115.377 56.1957 113.779C59.2461 112.79 62.4504 112.478 65.6157 112.86C67.9553 113.487 70.2625 114.247 72.5277 115.137C78.2577 117.33 81.8877 120.358 81.5277 122.066C81.3237 122.998 81.5277 128.011 80.4537 134.112C79.8837 137.405 79.5177 140.963 79.0077 144.541C79.0077 144.541 79.0077 144.573 79.0077 144.606C79.0077 144.638 79.0077 144.89 78.9777 145.156C78.8277 148.099 78.4857 160.773 82.8957 169.507C89.5257 182.607 49.7877 182.996 44.6397 179.224Z" fill="#2A65E9"/>
<g opacity="0.2">
<path d="M44.6397 179.224C41.0397 176.636 40.9497 165.463 41.6397 155.287C41.6757 152.699 41.7777 149.755 41.9817 146.611C42.1857 143.467 42.5037 140.142 42.9717 136.726C43.6291 131.685 44.6604 126.709 46.0557 121.846C46.9857 118.676 51.8157 115.377 56.1957 113.779C59.2461 112.79 62.4504 112.478 65.6157 112.86C67.9553 113.487 70.2625 114.247 72.5277 115.137C78.2577 117.33 81.8877 120.358 81.5277 122.066C81.3237 122.998 81.5277 128.011 80.4537 134.112C79.8837 137.405 79.5177 140.963 79.0077 144.541C79.0077 144.541 79.0077 144.573 79.0077 144.606C79.0077 144.638 79.0077 144.89 78.9777 145.156C78.8277 148.099 78.4857 160.773 82.8957 169.507C89.5257 182.607 49.7877 182.996 44.6397 179.224Z" fill="#E8EEFD"/>
</g>
<path d="M71.736 124.512C71.5533 124.508 71.371 124.493 71.19 124.466C65.826 123.658 61.326 112.821 61.284 112.718C61.28 112.708 61.2778 112.698 61.2774 112.688C61.277 112.678 61.2786 112.667 61.2819 112.658C61.2853 112.648 61.2904 112.639 61.2969 112.632C61.3034 112.624 61.3113 112.618 61.32 112.614C61.3384 112.605 61.3592 112.604 61.3783 112.611C61.3973 112.619 61.413 112.634 61.422 112.653C61.464 112.763 65.928 123.515 71.214 124.298C72.126 124.434 72.756 124.233 73.086 123.703C74.43 121.51 70.542 114.451 70.5 114.38C70.4878 114.365 70.481 114.346 70.481 114.325C70.481 114.305 70.4878 114.286 70.5 114.27C70.5067 114.263 70.5146 114.257 70.5234 114.253C70.5321 114.25 70.5415 114.248 70.551 114.248C70.5605 114.248 70.5699 114.25 70.5786 114.253C70.5874 114.257 70.5953 114.263 70.602 114.27C70.764 114.568 74.58 121.49 73.182 123.768C73.0194 124.014 72.8014 124.211 72.5484 124.341C72.2954 124.472 72.0158 124.53 71.736 124.512Z" fill="#E8EEFD"/>
<path d="M82.0258 233.878L74.9698 233.458L85.4098 193.004C85.4098 193.004 83.9998 193.301 81.7378 193.696C74.0818 194.99 56.6398 197.377 50.7898 192.693C42.3898 185.939 42.9898 176.953 42.9898 176.953C42.9898 176.953 109.668 155.921 111.39 176.19C112.164 185.286 82.0258 233.878 82.0258 233.878Z" fill="#263238"/>
<path d="M75.847 232.403L75.127 239.558H78.739L81.289 232.403H75.847Z" fill="#B55B52"/>
<path d="M73.7578 235.657L74.0698 231.872H83.7538L82.8478 235.657H73.7578Z" fill="#263238"/>
<path d="M90.6178 244.805C90.1138 242.392 89.0398 241.667 87.8158 241.57C86.5918 241.473 81.8158 239.856 81.8158 239.856C81.8158 239.856 80.6818 238.323 79.8118 238.012C79.5265 237.946 79.2299 237.968 78.9553 238.074C78.6807 238.18 78.4392 238.367 78.2578 238.614L75.9478 238.31C75.9478 238.31 75.1378 237.216 74.7838 238.174C74.3758 239.28 74.5138 244.042 74.5378 244.792L90.6178 244.805Z" fill="#2A65E9"/>
<path d="M90.2461 244.177H87.4261L75.0841 244.113C75.0522 244.113 75.0217 244.099 74.9992 244.075C74.9767 244.051 74.9641 244.018 74.9641 243.983C74.9641 243.949 74.9767 243.916 74.9992 243.892C75.0217 243.868 75.0522 243.854 75.0841 243.854H75.9181C75.9149 243.843 75.9149 243.832 75.9181 243.822C76.5181 242.424 75.8101 241.014 74.6221 240.309C74.4841 240.231 74.6221 240.005 74.7421 240.089C75.3767 240.406 75.8759 240.971 76.1387 241.67C76.4016 242.369 76.4085 243.15 76.1581 243.854H77.8981L90.2341 243.925C90.261 243.93 90.2856 243.945 90.3038 243.967C90.3219 243.989 90.3326 244.017 90.334 244.046C90.3354 244.076 90.3274 244.105 90.3114 244.128C90.2955 244.152 90.2724 244.17 90.2461 244.177Z" fill="black"/>
<path d="M81.2811 240.917C81.3912 240.721 81.5384 240.553 81.7131 240.424C81.8878 240.294 82.0861 240.206 82.2947 240.165C82.5034 240.124 82.7177 240.131 82.9236 240.186C83.1295 240.241 83.3222 240.342 83.4891 240.483C83.6091 240.58 83.7291 240.36 83.6091 240.263C83.4157 240.104 83.1932 239.991 82.9563 239.93C82.7194 239.87 82.4733 239.865 82.2343 239.914C81.9952 239.964 81.7686 240.067 81.5692 240.218C81.3698 240.368 81.2021 240.562 81.0771 240.787C80.9871 240.917 81.1911 241.046 81.2811 240.917Z" fill="#E8EEFD"/>
<path d="M82.6138 241.35C82.7232 241.155 82.8699 240.987 83.0441 240.857C83.2183 240.728 83.416 240.64 83.6242 240.599C83.8324 240.558 84.0463 240.565 84.2517 240.62C84.4571 240.675 84.6494 240.776 84.8158 240.917C84.9418 241.014 85.0618 240.794 84.9358 240.697C84.7424 240.538 84.5203 240.425 84.2838 240.365C84.0472 240.305 83.8017 240.299 83.5629 240.348C83.3242 240.397 83.0977 240.499 82.898 240.648C82.6983 240.798 82.5299 240.99 82.4038 241.214C82.3138 241.35 82.5238 241.48 82.6138 241.35Z" fill="#E8EEFD"/>
<path d="M83.9878 241.777C84.0978 241.582 84.2448 241.415 84.4192 241.286C84.5937 241.157 84.7915 241.07 84.9997 241.029C85.2078 240.989 85.4215 240.997 85.6267 241.052C85.8319 241.107 86.0238 241.209 86.1898 241.35C86.3158 241.447 86.4298 241.227 86.3098 241.124C86.1157 240.967 85.8932 240.855 85.6566 240.796C85.42 240.737 85.1746 240.732 84.9361 240.781C84.6976 240.83 84.4714 240.933 84.2719 241.082C84.0724 241.232 83.9041 241.424 83.7778 241.648C83.6878 241.784 83.8978 241.913 83.9878 241.777Z" fill="#E8EEFD"/>
<path opacity="0.2" d="M90.1917 180.796L85.3917 193.017C85.3917 193.017 83.9817 193.314 81.7197 193.709C84.5517 189.252 89.9577 181.126 90.1917 180.796Z" fill="black"/>
<path d="M56.4552 135.264C56.4552 135.264 54.1992 155.966 55.4532 158.826C56.7072 161.685 81.7272 163.477 81.7272 163.477L82.9272 164.985C82.9272 164.985 56.7492 172.903 47.4012 165.036C41.8872 160.404 43.0272 133.006 43.0272 133.006L56.4552 135.264Z" fill="#E4897B"/>
<path d="M46.3605 121.128C43.2105 126.051 41.8965 134.475 41.3145 142.348L58.3245 141.332C58.3245 141.332 60.1965 133.181 59.5245 126.122C59.1165 121.665 57.0705 119.556 54.7725 118.624C51.1245 117.123 48.5985 117.654 46.3605 121.128Z" fill="#2A65E9"/>
<path d="M66.5156 169.461H109.29L110.508 165.043H67.7336L66.5156 169.461Z" fill="#2A65E9"/>
<g opacity="0.5">
<path d="M66.5156 169.461H109.29L110.508 165.043H67.7336L66.5156 169.461Z" fill="#E8EEFD"/>
</g>
<path d="M82.6737 167.178H106.584C106.994 167.181 107.393 167.037 107.719 166.769C108.045 166.501 108.279 166.123 108.384 165.696L113.184 146.217C113.256 145.92 113.265 145.609 113.208 145.309C113.152 145.008 113.032 144.725 112.858 144.483C112.684 144.24 112.461 144.044 112.205 143.909C111.949 143.775 111.668 143.705 111.384 143.706H87.1257C86.5919 143.704 86.0726 143.894 85.6498 144.245C85.2271 144.597 84.9252 145.09 84.7917 145.647L80.3157 163.911C80.2179 164.298 80.205 164.705 80.2782 165.099C80.3514 165.493 80.5086 165.863 80.7374 166.18C80.9662 166.497 81.2602 166.752 81.5963 166.925C81.9324 167.098 82.3013 167.185 82.6737 167.178Z" fill="#2A65E9"/>
<g opacity="0.5">
<path d="M82.6747 167.178H106.585C106.995 167.181 107.394 167.037 107.72 166.769C108.046 166.501 108.28 166.123 108.385 165.696L113.185 146.217C113.257 145.92 113.266 145.609 113.209 145.309C113.153 145.008 113.033 144.725 112.859 144.483C112.685 144.24 112.461 144.044 112.206 143.909C111.95 143.775 111.669 143.705 111.385 143.706H87.1267C86.5929 143.704 86.0735 143.894 85.6508 144.245C85.2281 144.597 84.9261 145.09 84.7927 145.647L80.3167 163.911C80.2188 164.298 80.206 164.705 80.2792 165.099C80.3524 165.493 80.5096 165.863 80.7384 166.18C80.9672 166.497 81.2612 166.752 81.5973 166.925C81.9334 167.098 82.3022 167.185 82.6747 167.178Z" fill="#E8EEFD"/>
</g>
<path d="M84.6414 167.178H108.551C108.961 167.181 109.361 167.037 109.686 166.769C110.012 166.501 110.246 166.123 110.351 165.696L115.151 146.217C115.224 145.92 115.233 145.609 115.176 145.309C115.12 145.008 115 144.725 114.826 144.483C114.652 144.24 114.428 144.044 114.173 143.909C113.917 143.775 113.636 143.705 113.351 143.706H89.1174C88.5836 143.704 88.0642 143.894 87.6415 144.245C87.2188 144.597 86.9168 145.09 86.7834 145.647L82.3254 163.911C82.2285 164.295 82.2151 164.697 82.286 165.088C82.3569 165.478 82.5104 165.845 82.7344 166.161C82.9585 166.478 83.2471 166.734 83.5778 166.91C83.9085 167.086 84.2725 167.178 84.6414 167.178Z" fill="#2A65E9"/>
<g opacity="0.8">
<path d="M84.6424 167.178H108.552C108.962 167.181 109.362 167.037 109.687 166.769C110.013 166.501 110.247 166.123 110.352 165.696L115.152 146.217C115.225 145.92 115.234 145.609 115.177 145.309C115.121 145.008 115.001 144.725 114.827 144.483C114.653 144.24 114.429 144.044 114.173 143.909C113.918 143.775 113.637 143.705 113.352 143.706H89.1184C88.5845 143.704 88.0652 143.894 87.6425 144.245C87.2198 144.597 86.9178 145.09 86.7843 145.647L82.3263 163.911C82.2295 164.295 82.216 164.697 82.287 165.088C82.3579 165.478 82.5114 165.845 82.7354 166.161C82.9594 166.478 83.248 166.734 83.5788 166.91C83.9095 167.086 84.2734 167.178 84.6424 167.178Z" fill="#E8EEFD"/>
</g>
<path d="M96.6666 155.656C96.5878 155.998 96.5828 156.355 96.6518 156.7C96.7208 157.044 96.8621 157.367 97.0648 157.644C97.2675 157.921 97.5263 158.144 97.8213 158.296C98.1163 158.448 98.4396 158.525 98.7666 158.522C99.4924 158.476 100.183 158.169 100.727 157.649C101.271 157.129 101.637 156.427 101.767 155.656C101.845 155.313 101.85 154.956 101.781 154.611C101.712 154.266 101.571 153.942 101.368 153.665C101.166 153.388 100.907 153.165 100.612 153.012C100.317 152.859 99.9939 152.781 99.6666 152.783C98.9404 152.83 98.2498 153.139 97.7058 153.66C97.1617 154.181 96.7958 154.884 96.6666 155.656Z" fill="#2A65E9"/>
<g opacity="0.5">
<path d="M96.6666 155.656C96.5878 155.998 96.5828 156.355 96.6518 156.7C96.7208 157.044 96.8621 157.367 97.0648 157.644C97.2675 157.921 97.5263 158.144 97.8213 158.296C98.1163 158.448 98.4396 158.525 98.7666 158.522C99.4924 158.476 100.183 158.169 100.727 157.649C101.271 157.129 101.637 156.427 101.767 155.656C101.845 155.313 101.85 154.956 101.781 154.611C101.712 154.266 101.571 153.942 101.368 153.665C101.166 153.388 100.907 153.165 100.612 153.012C100.317 152.859 99.9939 152.781 99.6666 152.783C98.9404 152.83 98.2498 153.139 97.7058 153.66C97.1617 154.181 96.7958 154.884 96.6666 155.656Z" fill="#E8EEFD"/>
</g>
<path d="M82.122 96.0523C81.888 96.764 80.922 96.9257 80.922 96.9257C80.922 96.9257 81.834 98.1614 81.378 98.5754C80.922 98.9894 79.932 98.5754 79.932 98.5754C80.0433 98.766 80.1163 98.9796 80.1463 99.2025C80.1762 99.4253 80.1625 99.6525 80.106 99.8693C79.896 100.587 79.626 100.316 79.626 100.316L65.01 97.7861C65.2685 96.5596 65.2685 95.2862 65.01 94.0597C64.548 92.3582 63.918 90.0292 64.68 89.6152C65.442 89.2011 65.808 89.6152 65.808 89.6152C65.808 89.6152 65.748 87.8684 66.534 87.7261C66.7407 87.6805 66.9538 87.6811 67.1602 87.7278C67.3666 87.7746 67.5619 87.8664 67.734 87.9978C67.734 87.9978 67.83 86.7686 68.544 86.6586C68.7497 86.6377 68.9556 86.6948 69.1265 86.8199C69.2973 86.9451 69.4223 87.1306 69.48 87.3444C69.48 87.3444 70.302 86.1346 71.112 86.1152C71.922 86.0958 72.03 87.0921 72.03 87.0921C72.03 87.0921 73.326 85.9535 73.926 86.3999C74.304 86.7334 74.5938 87.1686 74.766 87.6614C74.766 87.6614 76.026 86.264 76.566 87.0145C76.9057 87.5245 77.094 88.1335 77.106 88.7612C77.106 88.7612 78.732 87.4673 79.164 88.276C79.4196 88.835 79.5016 89.4678 79.398 90.081C79.398 90.081 80.79 89.2594 81.198 90.3009C81.3075 90.6249 81.3374 90.9738 81.2848 91.3139C81.2323 91.654 81.099 91.9736 80.898 92.2418C80.898 92.2418 82.194 92.41 82.146 93.2316C82.098 94.0532 80.946 94.7778 80.946 94.7778C80.946 94.7778 82.326 95.3342 82.122 96.0523Z" fill="#263238"/>
<path d="M71.2673 111.637V111.689L70.2473 114.07C70.1118 114.562 70.0213 115.066 69.9773 115.577C69.9375 115.99 69.9275 116.405 69.9473 116.819C70.3373 117.673 70.2953 119.407 68.4833 119.09C66.1973 118.67 62.5913 114.264 62.6213 113.145C64.2293 109.981 65.7653 106.209 66.1193 102.962L68.2313 106.501L71.2673 111.637Z" fill="#E4897B"/>
<g opacity="0.2">
<path d="M71.238 111.696L70.218 114.076C68.898 113.099 67.656 111.294 67.578 109.586C67.536 108.357 68.214 107.348 68.664 107.367L71.238 111.696Z" fill="black"/>
</g>
<path d="M66.6005 96.8739C66.868 95.6809 67.4124 94.5809 68.1826 93.6771C68.9528 92.7733 69.9234 92.0955 71.0033 91.7074C72.0832 91.3193 73.2368 91.2336 74.3559 91.4583C75.4749 91.6831 76.5226 92.2109 77.4005 92.9922C81.4085 96.5505 79.8785 103.693 77.1485 109.121C74.7485 113.902 68.5325 112.763 66.1025 107.652C64.4885 104.262 65.3945 102.062 66.5705 96.9063" fill="#E4897B"/>
<path d="M75.1253 107.439C75.1253 107.439 72.9113 106.792 71.8853 105.194C71.8853 105.194 71.7893 107.083 72.7793 108.144C73.7693 109.205 75.1253 107.439 75.1253 107.439Z" fill="#E8EEFD"/>
<path d="M66.4678 97.3527C66.4678 97.3527 67.9138 97.702 67.7578 99.0606C67.6018 100.419 67.4398 100.574 67.4398 100.574L69.1018 101.293C69.1018 101.293 69.4558 96.0588 70.7038 96.3564C71.9518 96.654 70.9618 94.0921 71.7718 93.898C73.6798 93.4451 78.5458 94.312 79.9078 97.8185C79.9078 97.8185 79.9078 94.5837 77.8858 92.507C75.8638 90.4303 71.2858 89.1688 68.9998 91.2714C66.7138 93.374 66.4678 97.3527 66.4678 97.3527Z" fill="#263238"/>
<path d="M63.606 99.5717C63.5876 100.907 64.06 102.195 64.92 103.156C66.066 104.45 67.458 103.525 67.824 101.862C68.148 100.4 67.95 97.9802 66.468 97.3333C64.986 96.6863 63.648 97.9155 63.606 99.5523" fill="#E4897B"/>
<path d="M72.931 101.765C72.811 102.179 72.931 102.58 73.165 102.664C73.399 102.748 73.711 102.483 73.831 102.075C73.951 101.668 73.831 101.26 73.597 101.176C73.363 101.092 73.045 101.357 72.931 101.765Z" fill="#263238"/>
<path d="M77.1312 103.123C77.0112 103.537 77.1312 103.939 77.3652 104.023C77.5992 104.107 77.9172 103.842 78.0372 103.428C78.1572 103.013 78.0372 102.612 77.7972 102.528C77.5572 102.444 77.2512 102.709 77.1312 103.123Z" fill="black"/>
<path d="M79.121 101.784C79.0888 101.77 79.0601 101.748 79.0372 101.72C79.0143 101.692 78.9978 101.659 78.989 101.623C78.9686 101.476 78.9208 101.334 78.8487 101.208C78.7765 101.081 78.6814 100.971 78.569 100.885C78.3266 100.745 78.047 100.7 77.777 100.756C77.7262 100.768 77.673 100.758 77.6284 100.729C77.5838 100.701 77.5511 100.654 77.537 100.6C77.5308 100.574 77.5296 100.546 77.5335 100.518C77.5374 100.491 77.5463 100.465 77.5597 100.442C77.5731 100.418 77.5908 100.398 77.6116 100.382C77.6324 100.366 77.656 100.354 77.681 100.348C78.0553 100.264 78.4453 100.328 78.779 100.529C78.9382 100.644 79.0737 100.792 79.177 100.966C79.2802 101.14 79.349 101.335 79.379 101.538C79.3851 101.565 79.3861 101.593 79.3817 101.62C79.3774 101.648 79.3679 101.674 79.3538 101.697C79.3397 101.72 79.3214 101.739 79.2999 101.755C79.2784 101.77 79.2543 101.78 79.229 101.784C79.1937 101.795 79.1563 101.795 79.121 101.784Z" fill="#263238"/>
<path d="M72.5757 99.727C72.5439 99.717 72.5151 99.6983 72.492 99.6727C72.4689 99.6472 72.4523 99.6156 72.4439 99.5811C72.4354 99.5466 72.4354 99.5104 72.4438 99.4758C72.4521 99.4413 72.4686 99.4097 72.4917 99.3841C72.761 99.0934 73.1194 98.9186 73.4997 98.8924C73.69 98.8954 73.8777 98.9405 74.0512 99.0251C74.2246 99.1097 74.38 99.2319 74.5077 99.3841C74.5312 99.4021 74.5508 99.4253 74.5652 99.4523C74.5795 99.4793 74.5882 99.5093 74.5906 99.5403C74.593 99.5713 74.5892 99.6024 74.5793 99.6316C74.5694 99.6608 74.5537 99.6874 74.5333 99.7093C74.5129 99.7313 74.4883 99.7482 74.4613 99.7589C74.4342 99.7696 74.4053 99.7737 74.3766 99.7711C74.3478 99.7685 74.32 99.7591 74.295 99.7437C74.2699 99.7282 74.2483 99.7071 74.2317 99.6817C74.1406 99.5716 74.0299 99.4822 73.9063 99.4189C73.7826 99.3555 73.6485 99.3195 73.5117 99.3129C73.2334 99.3344 72.9715 99.463 72.7737 99.6752C72.7485 99.703 72.7166 99.7226 72.6816 99.7318C72.6466 99.7409 72.6099 99.7393 72.5757 99.727Z" fill="#263238"/>
<path d="M75.7983 101.978C75.7586 102.886 75.9673 103.786 76.3983 104.566C77.1003 105.763 74.9883 105.892 74.9883 105.892L75.7983 101.978Z" fill="#BA4D3C"/>
</svg>
