<svg width="18" height="16" viewBox="0 0 18 16" fill="none" xmlns="http://www.w3.org/2000/svg">
<path fill-rule="evenodd" clip-rule="evenodd" d="M16.1086 1.77532C16.3527 1.53124 16.3527 1.13551 16.1086 0.891432C15.8645 0.647355 15.4688 0.647355 15.2247 0.891432L1.89139 14.2248C1.64731 14.4688 1.64731 14.8646 1.89139 15.1086C2.13547 15.3527 2.5312 15.3527 2.77528 15.1086L5.14769 12.7362C6.28628 13.2722 7.59766 13.625 9 13.625C11.2367 13.625 13.242 12.7275 14.6838 11.6208C15.4061 11.0665 16.0027 10.448 16.4241 9.84075C16.8339 9.25028 17.125 8.60229 17.125 8.00004C17.125 7.39779 16.8339 6.7498 16.4241 6.15933C16.0027 5.55208 15.4061 4.93361 14.6838 4.37923C14.4654 4.21158 14.234 4.04873 13.9909 3.89306L16.1086 1.77532ZM13.0829 4.80098L11.6073 6.27667C11.9345 6.77069 12.125 7.36311 12.125 8.00004C12.125 9.72593 10.7259 11.125 9 11.125C8.36307 11.125 7.77065 10.9345 7.27663 10.6073L6.09603 11.7879C6.98397 12.1496 7.96843 12.375 9 12.375C10.9055 12.375 12.6502 11.6059 13.9228 10.6292C14.5577 10.1419 15.0595 9.61458 15.3971 9.12808C15.7464 8.6248 15.875 8.23112 15.875 8.00004C15.875 7.76896 15.7464 7.37528 15.3971 6.872C15.0595 6.3855 14.5577 5.85814 13.9228 5.37085C13.6618 5.17054 13.381 4.97897 13.0829 4.80098ZM8.19162 9.69231C8.43639 9.80944 8.71053 9.87504 9 9.87504C10.0355 9.87504 10.875 9.03557 10.875 8.00004C10.875 7.71057 10.8094 7.43643 10.6923 7.19166L8.19162 9.69231Z" fill="#060606"/>
<path d="M9 2.37504C9.83629 2.37504 10.6402 2.50052 11.3945 2.71549C11.5733 2.76646 11.6265 2.9897 11.495 3.12117L10.8722 3.74398C10.8103 3.80583 10.7207 3.83056 10.6354 3.8112C10.1096 3.69189 9.56177 3.62504 9 3.62504C7.09454 3.62504 5.34982 4.39414 4.07723 5.37085C3.44231 5.85814 2.94048 6.3855 2.60285 6.872C2.25359 7.37528 2.125 7.76896 2.125 8.00004C2.125 8.23112 2.25359 8.6248 2.60285 9.12808C2.89089 9.54312 3.29845 9.98792 3.80619 10.4122C3.9215 10.5085 3.93254 10.6836 3.82629 10.7899L3.29533 11.3208C3.20502 11.4111 3.06091 11.4191 2.96337 11.3367C2.39857 10.8592 1.92662 10.3461 1.57592 9.84075C1.16614 9.25028 0.875 8.60229 0.875 8.00004C0.875 7.39779 1.16614 6.7498 1.57592 6.15933C1.99734 5.55208 2.59385 4.93361 3.31617 4.37923C4.75804 3.27261 6.76332 2.37504 9 2.37504Z" fill="#060606"/>
<path d="M9 4.87504C9.07286 4.87504 9.14515 4.87753 9.21677 4.88244C9.41401 4.89595 9.48559 5.13058 9.34579 5.27038L8.38949 6.22668C7.84506 6.41407 7.41403 6.8451 7.22664 7.38953L6.27034 8.34583C6.13054 8.48563 5.89591 8.41405 5.8824 8.21681C5.87749 8.14519 5.875 8.0729 5.875 8.00004C5.875 6.27415 7.27411 4.87504 9 4.87504Z" fill="#060606"/>
</svg>
