<svg width="16" height="11" viewBox="0 0 16 11" fill="none" xmlns="http://www.w3.org/2000/svg">
<path fill-rule="evenodd" clip-rule="evenodd" d="M4.92308 5.5C4.92308 3.81246 6.30066 2.44444 8 2.44444C9.69934 2.44444 11.0769 3.81246 11.0769 5.5C11.0769 7.18754 9.69934 8.55556 8 8.55556C6.30066 8.55556 4.92308 7.18754 4.92308 5.5ZM8 3.66667C6.9804 3.66667 6.15385 4.48748 6.15385 5.5C6.15385 6.51252 6.9804 7.33333 8 7.33333C9.0196 7.33333 9.84615 6.51252 9.84615 5.5C9.84615 4.48748 9.0196 3.66667 8 3.66667Z" fill="#7D8592"/>
<path fill-rule="evenodd" clip-rule="evenodd" d="M1.70127 4.39703C1.35738 4.88912 1.23077 5.27405 1.23077 5.5C1.23077 5.72595 1.35738 6.11088 1.70127 6.60297C2.0337 7.07866 2.52782 7.5943 3.15296 8.07077C4.40598 9.02577 6.12386 9.77778 8 9.77778C9.87614 9.77778 11.594 9.02577 12.847 8.07077C13.4722 7.5943 13.9663 7.07866 14.2987 6.60297C14.6426 6.11088 14.7692 5.72595 14.7692 5.5C14.7692 5.27405 14.6426 4.88912 14.2987 4.39703C13.9663 3.92134 13.4722 3.4057 12.847 2.92923C11.594 1.97423 9.87614 1.22222 8 1.22222C6.12386 1.22222 4.40598 1.97423 3.15296 2.92923C2.52782 3.4057 2.0337 3.92134 1.70127 4.39703ZM2.40361 1.95966C3.82331 0.87762 5.79773 0 8 0C10.2023 0 12.1767 0.87762 13.5964 1.95966C14.3076 2.50171 14.8949 3.10644 15.3099 3.70019C15.7133 4.27754 16 4.91113 16 5.5C16 6.08887 15.7133 6.72246 15.3099 7.29981C14.8949 7.89356 14.3076 8.49829 13.5964 9.04034C12.1767 10.1224 10.2023 11 8 11C5.79773 11 3.82331 10.1224 2.40361 9.04034C1.69241 8.49829 1.10507 7.89356 0.690136 7.29981C0.286663 6.72246 0 6.08887 0 5.5C0 4.91113 0.286663 4.27754 0.690136 3.70019C1.10507 3.10644 1.69241 2.50171 2.40361 1.95966Z" fill="#7D8592"/>
</svg>
